<svg width="32" height="32" viewBox="0 0 32 32" fill="none" xmlns="http://www.w3.org/2000/svg">
<path d="M26.6521 0H5.34788C2.39469 0 0 2.39396 0 5.34788V26.6521C0 29.606 2.39469 32 5.34788 32H26.6521C29.606 32 32 29.606 32 26.6521V5.34788C32.0007 2.39396 29.6068 0 26.6521 0ZM26.1823 24.496C26.1823 25.4282 25.4268 26.1831 24.4952 26.1831H7.50841C6.57613 26.1831 5.82056 25.4282 5.82056 24.496V7.50841C5.82056 6.57613 6.57613 5.82056 7.50841 5.82056H24.4952C25.4268 5.82056 26.1823 6.57613 26.1823 7.50841V24.496ZM12.6039 20.3632H19.3946C19.9313 20.3632 20.3632 19.9269 20.3632 19.3895V12.609C20.3632 12.0716 19.9313 11.6353 19.3946 11.6353H12.6039C12.0687 11.6353 11.6353 12.0716 11.6353 12.609V19.3895C11.6353 19.9269 12.0687 20.3632 12.6039 20.3632Z" fill="black" fill-opacity="0.9"/>
</svg>
