<svg width="48" height="48" viewBox="0 0 48 48" fill="none" xmlns="http://www.w3.org/2000/svg">
<path d="M0 24C0 10.7452 10.7452 0 24 0C37.2548 0 48 10.7452 48 24C48 37.2548 37.2548 48 24 48C10.7452 48 0 37.2548 0 24Z" fill="white" fill-opacity="0.01"/>
<path fill-rule="evenodd" clip-rule="evenodd" d="M24 13C24.4277 13 24.808 13.272 24.9463 13.6768L27.333 20.666L34.3232 23.0537C34.728 23.192 35 23.5723 35 24C35 24.4277 34.728 24.808 34.3232 24.9463L27.333 27.333L24.9463 34.3232C24.808 34.728 24.4277 35 24 35C23.5723 35 23.192 34.728 23.0537 34.3232L20.666 27.333L13.6768 24.9463C13.272 24.808 13 24.4277 13 24C13 23.5723 13.272 23.192 13.6768 23.0537L20.666 20.666L23.0537 13.6768L23.1162 13.5312C23.2875 13.2081 23.6258 13 24 13ZM22.4004 21.7773C22.3003 22.0703 22.0703 22.3003 21.7773 22.4004L17.0938 24L21.7773 25.5996L21.8848 25.6426C22.1263 25.7577 22.3129 25.9664 22.4004 26.2227L24 30.9053L25.5996 26.2227L25.6426 26.1152C25.7577 25.8737 25.9664 25.6871 26.2227 25.5996L30.9053 24L26.2227 22.4004C25.9297 22.3003 25.6997 22.0703 25.5996 21.7773L24 17.0938L22.4004 21.7773Z" fill="#101010"/>
</svg>
