<svg width="48" height="48" viewBox="0 0 48 48" fill="none" xmlns="http://www.w3.org/2000/svg">
<path d="M0 24C0 10.7452 10.7452 0 24 0C37.2548 0 48 10.7452 48 24C48 37.2548 37.2548 48 24 48C10.7452 48 0 37.2548 0 24Z" fill="white" fill-opacity="0.01"/>
<path d="M24.0002 27.0002C24.8282 27.0002 25.5002 27.6722 25.5002 28.5002C25.5002 29.3282 24.8282 30.0002 24.0002 30.0002C23.1722 30.0002 22.5002 29.3282 22.5002 28.5002C22.5002 27.6722 23.1722 27.0002 24.0002 27.0002Z" fill="#101010"/>
<path d="M24.0002 17.7502C26 17.7503 27.5001 19.2793 27.5002 21.2102C27.5002 22.1919 27.0958 23.0185 26.428 23.5959C26.0169 23.9512 25.5257 24.196 25.0002 24.342V25.2502H23.0002V22.5608L23.9377 22.5022C24.4658 22.4693 24.8685 22.3 25.1203 22.0823C25.3531 21.8809 25.5002 21.6051 25.5002 21.2102C25.5001 20.3876 24.8991 19.7503 24.0002 19.7502C23.1019 19.7503 22.4232 20.4014 22.2326 21.3977L20.2678 21.0227C20.59 19.3367 21.9055 17.7503 24.0002 17.7502Z" fill="#101010"/>
<path fill-rule="evenodd" clip-rule="evenodd" d="M16.9289 16.9289C20.8342 13.0237 27.1663 13.0237 31.0715 16.9289C34.9768 20.8342 34.9768 27.1663 31.0715 31.0715C27.1663 34.9768 20.8342 34.9768 16.9289 31.0715C13.0237 27.1663 13.0237 20.8342 16.9289 16.9289ZM29.6574 18.343C26.5333 15.2188 21.4672 15.2188 18.343 18.343C15.2188 21.4672 15.2188 26.5333 18.343 29.6574C21.4672 32.7816 26.5333 32.7816 29.6574 29.6574C32.7816 26.5333 32.7816 21.4672 29.6574 18.343Z" fill="#101010"/>
</svg>
