<svg width="48" height="48" viewBox="0 0 48 48" fill="none" xmlns="http://www.w3.org/2000/svg">
<path d="M0 24C0 10.7452 10.7452 0 24 0C37.2548 0 48 10.7452 48 24C48 37.2548 37.2548 48 24 48C10.7452 48 0 37.2548 0 24Z" fill="white" fill-opacity="0.01"/>
<path fill-rule="evenodd" clip-rule="evenodd" d="M26 14C28.2091 14 30 15.7909 30 18V19.5H31C33.2091 19.5 35 21.2909 35 23.5V28C35 30.2091 33.2091 32 31 32H29V30H31C32.1046 30 33 29.1046 33 28V23.5C33 22.3954 32.1046 21.5 31 21.5H30V22.5C30 24.7091 28.2091 26.5 26 26.5H20V28C20 29.1046 20.8954 30 22 30H24.5859C25.1163 30 25.625 30.2109 26 30.5859L29.207 33.793L27.793 35.207L24.5859 32H22C19.7909 32 18 30.2091 18 28V26.5H17C14.7909 26.5 13 24.7091 13 22.5V18C13 15.7909 14.7909 14 17 14H26ZM17 16C15.8954 16 15 16.8954 15 18V22.5C15 23.6046 15.8954 24.5 17 24.5H18V23.5C18 21.2909 19.7909 19.5 22 19.5H28V18C28 16.8954 27.1046 16 26 16H17ZM22 21.5C20.8954 21.5 20 22.3954 20 23.5V24.5H26C27.1046 24.5 28 23.6046 28 22.5V21.5H22Z" fill="#101010"/>
</svg>
