<svg width="48" height="48" viewBox="0 0 48 48" fill="none" xmlns="http://www.w3.org/2000/svg">
<path d="M0 24C0 10.7452 10.7452 0 24 0C37.2548 0 48 10.7452 48 24C48 37.2548 37.2548 48 24 48C10.7452 48 0 37.2548 0 24Z" fill="white" fill-opacity="0.01"/>
<path d="M27.707 33.207C26.7271 34.187 25.3235 34.625 24 34.625C22.6765 34.625 21.2729 34.187 20.293 33.207L21.707 31.793C22.2271 32.313 23.0735 32.625 24 32.625C24.9265 32.625 25.7729 32.313 26.293 31.793L27.707 33.207Z" fill="#101010"/>
<path fill-rule="evenodd" clip-rule="evenodd" d="M24 14C27.0235 14.0001 29.6373 16.1108 30.2744 19.0664L32.4775 29.2891C32.5412 29.5844 32.468 29.8928 32.2783 30.1279C32.0885 30.3631 31.8022 30.5 31.5 30.5H16.5C16.1978 30.5 15.9115 30.363 15.7217 30.1279C15.532 29.8929 15.4588 29.5843 15.5225 29.2891L17.7256 19.0664C18.3625 16.1105 20.9763 14 24 14ZM24 16C21.9186 16 20.1192 17.4527 19.6807 19.4873L17.7383 28.5H30.2617L28.3193 19.4873C27.8808 17.4527 26.0813 16.0001 24 16Z" fill="#101010"/>
</svg>
