<svg width="16" height="16" viewBox="0 0 16 16" fill="none" xmlns="http://www.w3.org/2000/svg">
<path d="M13.0001 1.75C13.3879 1.75 13.7119 2.04555 13.7472 2.43164L14.7472 13.4316C14.7663 13.6415 14.696 13.8503 14.5539 14.0059C14.4118 14.1614 14.2108 14.25 14.0001 14.25H2.00014C1.78947 14.25 1.58852 14.1614 1.44643 14.0059C1.30434 13.8503 1.234 13.6415 1.25307 13.4316L2.25307 2.43164L2.27944 2.29199C2.37023 1.97652 2.66069 1.75 3.00014 1.75H13.0001ZM2.82143 12.75H13.1789L12.3146 3.25H3.68569L2.82143 12.75ZM6.25014 5V6C6.25014 6.41421 6.58593 6.75 7.00014 6.75H9.00014C9.41436 6.75 9.75014 6.41421 9.75014 6V5H11.2501V6C11.2501 7.24264 10.2428 8.25 9.00014 8.25H7.00014C5.7575 8.25 4.75014 7.24264 4.75014 6V5H6.25014Z" fill="white"/>
</svg>
