<svg width="16" height="16" viewBox="0 0 16 16" fill="none" xmlns="http://www.w3.org/2000/svg">
<path d="M15.25 7V8C15.25 10.6233 13.1234 12.75 10.5 12.75H5.31055L7.03027 14.4697L5.96973 15.5303L2.96973 12.5303C2.82909 12.3896 2.75 12.1989 2.75 12C2.75001 11.8011 2.82909 11.6104 2.96973 11.4697L5.96973 8.46973L7.03027 9.53027L5.31055 11.25H10.5C12.2949 11.25 13.75 9.79492 13.75 8V7H15.25ZM13.0303 3.46973C13.1709 3.61036 13.25 3.80111 13.25 4C13.25 4.1989 13.1709 4.38962 13.0303 4.53027L10.0303 7.53027L8.96973 6.46973L10.6895 4.75H5.5C3.7051 4.75 2.25003 6.2051 2.25 8V9H0.75V8C0.750034 5.37668 2.87667 3.25 5.5 3.25H10.6895L8.96973 1.53027L10.0303 0.469727L13.0303 3.46973Z" fill="#101010"/>
</svg>
