<svg width="24" height="24" viewBox="0 0 24 24" fill="none" xmlns="http://www.w3.org/2000/svg">
<path d="M6.87305 6.87299C9.70432 4.04172 14.2956 4.04178 17.127 6.87299C19.9583 9.70429 19.9583 14.2956 17.127 17.1269C14.2957 19.9582 9.70435 19.9582 6.87305 17.1269C4.04184 14.2956 4.04178 9.70426 6.87305 6.87299ZM16.0654 7.93451C13.8199 5.68909 10.1801 5.68903 7.93457 7.93451C5.68909 10.18 5.68915 13.8198 7.93457 16.0654C10.1801 18.3109 13.8199 18.3109 16.0654 16.0654C18.3109 13.8199 18.3109 10.18 16.0654 7.93451ZM12.75 11.7499H14.5V13.2499H12C11.5858 13.2499 11.25 12.9141 11.25 12.4999V8.99994H12.75V11.7499Z" fill="black"/>
</svg>
