<svg width="24" height="24" viewBox="0 0 24 24" fill="none" xmlns="http://www.w3.org/2000/svg">
<path d="M20.5 19C20.7761 19 21 19.2239 21 19.5V20.5C21 20.7761 20.7761 21 20.5 21H3.5C3.22386 21 3 20.7761 3 20.5V19.5C3 19.2239 3.22386 19 3.5 19H20.5ZM20.5 15C20.7761 15 21 15.2239 21 15.5V16.5C21 16.7761 20.7761 17 20.5 17H3.5C3.22386 17 3 16.7761 3 16.5V15.5C3 15.2239 3.22386 15 3.5 15H20.5ZM20.5 11C20.7761 11 21 11.2239 21 11.5V12.5C21 12.7761 20.7761 13 20.5 13H3.5C3.22386 13 3 12.7761 3 12.5V11.5C3 11.2239 3.22386 11 3.5 11H20.5ZM20.5 7C20.7761 7 21 7.22386 21 7.5V8.5C21 8.77614 20.7761 9 20.5 9H3.5C3.22386 9 3 8.77614 3 8.5V7.5C3 7.22386 3.22386 7 3.5 7H20.5ZM20.5 3C20.7761 3 21 3.22386 21 3.5V4.5C21 4.77614 20.7761 5 20.5 5H3.5C3.22386 5 3 4.77614 3 4.5V3.5C3 3.22386 3.22386 3 3.5 3H20.5Z" fill="#959595"/>
</svg>
