<svg width="24" height="24" viewBox="0 0 24 24" fill="none" xmlns="http://www.w3.org/2000/svg">
  <rect x="2" y="5" width="20" height="14" rx="2" stroke="#1D1D1F" stroke-width="1.5"/>
  <circle cx="12" cy="12" r="3.5" stroke="#1D1D1F" stroke-width="1.5"/>
  <line x1="12" y1="9" x2="12" y2="8" stroke="#1D1D1F" stroke-width="1.5" stroke-linecap="round"/>
  <line x1="12" y1="16" x2="12" y2="15" stroke="#1D1D1F" stroke-width="1.5" stroke-linecap="round"/>
  <path d="M13.5 10.5C13.5 10.5 13 10 12 10C11 10 10.5 10.5 10.5 11C10.5 11.5 11 12 12 12C13 12 13.5 12.5 13.5 13C13.5 13.5 13 14 12 14C11 14 10.5 13.5 10.5 13.5" stroke="#1D1D1F" stroke-width="1.2" stroke-linecap="round"/>
  <circle cx="5.5" cy="12" r="1" fill="#1D1D1F"/>
  <circle cx="18.5" cy="12" r="1" fill="#1D1D1F"/>
</svg>
