<svg width="24" height="24" viewBox="0 0 24 24" fill="none" xmlns="http://www.w3.org/2000/svg">
<path d="M13.0002 17.0002H11.0002V11.5002H13.0002V17.0002Z" fill="#101010"/>
<path d="M12.0002 6.50022C12.8286 6.50022 13.5002 7.17179 13.5002 8.00022C13.5002 8.82865 12.8286 9.50022 12.0002 9.50022C11.1718 9.50022 10.5002 8.82865 10.5002 8.00022C10.5002 7.17179 11.1718 6.50022 12.0002 6.50022Z" fill="#101010"/>
<path fill-rule="evenodd" clip-rule="evenodd" d="M4.92893 4.92893C8.83417 1.02369 15.1663 1.02369 19.0715 4.92893C22.9768 8.83418 22.9768 15.1663 19.0715 19.0715C15.1663 22.9768 8.83418 22.9768 4.92893 19.0715C1.02369 15.1663 1.02369 8.83418 4.92893 4.92893ZM17.6574 6.34299C14.5333 3.2188 9.46719 3.2188 6.34299 6.34299C3.2188 9.46719 3.2188 14.5333 6.34299 17.6574C9.46719 20.7816 14.5333 20.7816 17.6574 17.6574C20.7816 14.5333 20.7816 9.46719 17.6574 6.34299Z" fill="#101010"/>
</svg>
