<svg width="24" height="24" viewBox="0 0 24 24" fill="none" xmlns="http://www.w3.org/2000/svg">
<path d="M18.5005 16.4995H21.5005V18.4995H18.5005V21.4995H16.5005V18.4995H13.5005V16.4995H16.5005V13.4995H18.5005V16.4995Z" fill="#101010"/>
<path fill-rule="evenodd" clip-rule="evenodd" d="M9.00098 14C9.55304 14.0003 10.001 14.4479 10.001 15L10 20C9.99974 20.5521 9.55212 21 9 21H4C3.73496 20.9999 3.48039 20.8945 3.29297 20.707C3.10555 20.5196 3.00013 20.265 3 20L3.00098 15C3.00098 14.4477 3.44869 14 4.00098 14H9.00098ZM5 19H8.00098V16H5.00098L5 19Z" fill="#101010"/>
<path fill-rule="evenodd" clip-rule="evenodd" d="M9.10254 3.00488C9.60667 3.05621 10 3.48232 10 4V9C9.99974 9.55206 9.55212 10 9 10H4C3.73496 9.99987 3.48039 9.89445 3.29297 9.70703C3.10555 9.51961 3.00013 9.26504 3 9V3.99902C3.00026 3.44713 3.4481 3.00026 4 3H9L9.10254 3.00488ZM5 8H8V5H5V8Z" fill="#101010"/>
<path fill-rule="evenodd" clip-rule="evenodd" d="M20.0005 3C20.5525 3.00026 21.0005 3.44788 21.0005 4V9C21.0002 9.5519 20.5524 9.99974 20.0005 10H14.9995C14.7347 9.99987 14.4808 9.89415 14.2935 9.70703C14.106 9.51961 14.0006 9.26504 14.0005 9V3.99902C14.0008 3.44696 14.4484 3 15.0005 3H20.0005ZM16.0005 8H19.0005V5H16.0005V8Z" fill="#101010"/>
</svg>
