<svg width="24" height="24" viewBox="0 0 24 24" fill="none" xmlns="http://www.w3.org/2000/svg">
<path fill-rule="evenodd" clip-rule="evenodd" d="M12.0694 4.56639C13.2481 3.00759 14.8868 3 14.8868 3C14.8868 3 15.1305 4.46552 13.9596 5.8773C12.7092 7.3848 11.288 7.13814 11.288 7.13814C11.288 7.13814 11.0212 5.95258 12.0694 4.56639ZM11.4379 8.16471C12.0444 8.16471 13.1698 7.32836 14.6347 7.32836C17.1563 7.32836 18.1483 9.12868 18.1483 9.12868C18.1483 9.12868 16.2081 10.124 16.2081 12.539C16.2081 15.2633 18.625 16.2023 18.625 16.2023C18.625 16.2023 16.9355 20.9736 14.6534 20.9736C13.6053 20.9736 12.7905 20.2649 11.6861 20.2649C10.5607 20.2649 9.4439 21 8.71645 21C6.63264 21.0001 4 16.474 4 12.8358C4 9.25629 6.22835 7.3785 8.31845 7.3785C9.67718 7.3785 10.7316 8.16471 11.4379 8.16471Z" fill="black"/>
</svg>
