<svg width="24" height="24" viewBox="0 0 24 24" fill="none" xmlns="http://www.w3.org/2000/svg">
<path fill-rule="evenodd" clip-rule="evenodd" d="M12.225 2.6952L12.4477 2.73328L12.5844 2.77137C12.8987 2.87272 13.173 3.05775 13.3891 3.19422L22.0346 8.65418C22.4107 8.892 22.585 9.35068 22.4613 9.77821C22.3375 10.2056 21.9454 10.4997 21.5004 10.4999H20.0004V18.9999H22.0004V20.9999H2.0004V18.9999H4.0004V10.4999H2.5004C2.05533 10.4999 1.66336 10.2056 1.53946 9.77821C1.41572 9.35053 1.58981 8.89194 1.96622 8.65418L10.6117 3.19422C10.8587 3.03826 11.1811 2.81868 11.5531 2.73328C11.7736 2.6828 12.0013 2.66992 12.225 2.6952ZM6.0004 10.4999V18.9999H11.0004V10.4999H6.0004ZM13.0004 10.4999V18.9999H18.0004V10.4999H13.0004ZM11.9945 4.69227C11.9305 4.72725 11.8448 4.78059 11.6801 4.88465L5.95646 8.49989H18.0443L12.3207 4.88465C12.1561 4.78069 12.0703 4.72728 12.0063 4.69227C12.0043 4.69122 12.0022 4.68939 12.0004 4.68836C11.9986 4.68932 11.9965 4.69114 11.9945 4.69227Z" fill="#101010"/>
</svg>
