<svg width="24" height="24" viewBox="0 0 24 24" fill="none" xmlns="http://www.w3.org/2000/svg">
<rect x="3" y="3" width="18" height="18" rx="4" stroke="black" stroke-width="2"/>
<path fill-rule="evenodd" clip-rule="evenodd" d="M17.0819 14.382C17.0363 14.3295 16.9562 14.3186 16.8966 14.3562C16.593 14.5498 16.2563 14.6949 15.9178 14.8187C15.1151 15.1123 13.8333 15.4234 12.0002 15.4234C10.1671 15.4234 8.8854 15.1123 8.08263 14.8187C7.74402 14.6949 7.4075 14.5499 7.10383 14.3562C7.04426 14.3183 6.96344 14.3296 6.91766 14.382L6.03155 15.4016C5.98266 15.458 5.99114 15.5419 6.05313 15.5852C6.49069 15.8858 6.98825 16.1081 7.48736 16.2906C8.48107 16.654 9.96475 17 12.0002 17C14.0356 16.9999 15.5186 16.654 16.5122 16.2906C17.0115 16.108 17.5086 15.8861 17.9465 15.5852C18.0083 15.542 18.0174 15.458 17.9688 15.4016L17.0819 14.382ZM8.38625 9C8.2734 9.00004 8.18185 9.08969 8.1817 9.2V11.4672C8.18185 11.5775 8.2734 11.6672 8.38625 11.6672H9.61354C9.72624 11.667 9.81794 11.5774 9.81809 11.4672V9.2C9.81794 9.08979 9.72624 9.00021 9.61354 9H8.38625ZM16.5682 9C16.4553 9.00004 16.3638 9.08969 16.3636 9.2V11.4672C16.3638 11.5775 16.4553 11.6672 16.5682 11.6672H17.7955C17.9081 11.667 17.9999 11.5774 18 11.4672V9.2C17.9999 9.08979 17.9081 9.00021 17.7955 9H16.5682Z" fill="#0F0F0F" stroke="black" stroke-width="0.5"/>
</svg>
