<svg width="24" height="24" viewBox="0 0 24 24" fill="none" xmlns="http://www.w3.org/2000/svg">
<path fill-rule="evenodd" clip-rule="evenodd" d="M5.59843 3.3C6.56743 3 7.46786 3 9.26871 3H14.7313C16.5493 3 17.4411 3 18.4102 3.31714C19.4736 3.70286 20.3139 4.54286 20.6913 5.60571C21 6.57429 21 7.47429 21 9.28286V14.7257C21 16.5257 21 17.4257 20.6913 18.4029C20.3054 19.4657 19.4649 20.3057 18.4016 20.6914C17.4326 21 16.5321 21 14.7227 21H9.26871C7.46786 21 6.56743 21 5.58986 20.6914C4.52649 20.3057 3.68606 19.4657 3.30017 18.4029C3 17.4343 3 16.5429 3 14.7257V9.27429C3 7.46571 3 6.56571 3.30874 5.58857C3.69463 4.52571 4.53506 3.68571 5.59843 3.3ZM15.5032 13.6457C15.5032 12.3171 14.6371 11.5286 12.7419 11.1257C11.2412 10.8 10.7524 10.5257 10.7695 10.0114C10.7695 9.39429 11.3955 8.95714 12.3988 8.95714C13.2993 8.95714 14.1226 9.32572 14.6542 9.97714C14.7229 10.0714 14.8515 10.0886 14.9458 10.0114L15.9835 9.16286C16.0692 9.09429 16.0864 8.96571 16.0178 8.88C15.589 8.30571 14.903 7.84286 14.0626 7.58571L14.3112 6.44572C14.3369 6.31714 14.2341 6.19714 14.1054 6.19714H12.5018C12.3989 6.19714 12.3131 6.26572 12.296 6.36L12.0816 7.38C10.1264 7.53429 8.8315 8.69143 8.8315 10.2343C8.8315 11.5629 9.69764 12.3686 11.8758 12.84C13.1536 13.1057 13.5309 13.3543 13.5309 13.8943C13.5309 14.5971 12.7762 15.0857 11.7729 15.0857C10.658 15.0857 9.73184 14.5886 9.13159 13.7486C9.06293 13.6543 8.92579 13.6286 8.83141 13.7057L7.69947 14.5886C7.61376 14.6571 7.59661 14.7771 7.65661 14.8714C8.14536 15.5829 8.99436 16.1657 10.0406 16.4657L9.78336 17.5629C9.75764 17.6914 9.85193 17.82 9.98916 17.82H11.6185C11.7214 17.82 11.8072 17.7514 11.8243 17.6571L12.0301 16.6714C14.1482 16.5343 15.5032 15.3086 15.5032 13.6457Z" fill="black"/>
</svg>
