<svg width="24" height="24" viewBox="0 0 24 24" fill="none" xmlns="http://www.w3.org/2000/svg">
<mask id="path-1-outside-1_563_10600" maskUnits="userSpaceOnUse" x="1" y="1" width="22" height="22" fill="black">
<rect fill="white" x="1" y="1" width="22" height="22"/>
<path d="M12 2C17.5228 2 22 6.47715 22 12C22 17.5228 17.5228 22 12 22C6.47715 22 2 17.5228 2 12C2 6.47715 6.47715 2 12 2ZM10.5 13.4639L8.25879 10.8496L6.74121 12.1504L9.74121 15.6504L9.81641 15.7295C10.0007 15.9022 10.2447 16 10.5 16C10.7919 16 11.0688 15.872 11.2588 15.6504L17.2588 8.65039L15.7412 7.34961L10.5 13.4639Z"/>
</mask>
<path d="M12 2C17.5228 2 22 6.47715 22 12C22 17.5228 17.5228 22 12 22C6.47715 22 2 17.5228 2 12C2 6.47715 6.47715 2 12 2ZM10.5 13.4639L8.25879 10.8496L6.74121 12.1504L9.74121 15.6504L9.81641 15.7295C10.0007 15.9022 10.2447 16 10.5 16C10.7919 16 11.0688 15.872 11.2588 15.6504L17.2588 8.65039L15.7412 7.34961L10.5 13.4639Z" fill="#101010"/>
<path d="M10.5 13.4639L9.7408 14.1147L10.5 15.0003L11.2592 14.1147L10.5 13.4639ZM8.25879 10.8496L9.01799 10.1987L8.36718 9.43962L7.608 10.0904L8.25879 10.8496ZM6.74121 12.1504L6.09042 11.3911L5.33116 12.0419L5.98195 12.8012L6.74121 12.1504ZM9.74121 15.6504L8.98195 16.3012L8.9987 16.3207L9.01644 16.3394L9.74121 15.6504ZM9.81641 15.7295L9.09163 16.4185L9.11152 16.4394L9.13259 16.4591L9.81641 15.7295ZM11.2588 15.6504L10.4995 14.9996V14.9996L11.2588 15.6504ZM17.2588 8.65039L18.018 9.30118L18.6688 8.54193L17.9096 7.89113L17.2588 8.65039ZM15.7412 7.34961L16.392 6.59035L15.6328 5.93959L14.982 6.69879L15.7412 7.34961ZM12 2V3C16.9706 3 21 7.02944 21 12H22H23C23 5.92487 18.0751 1 12 1V2ZM22 12H21C21 16.9706 16.9706 21 12 21V22V23C18.0751 23 23 18.0751 23 12H22ZM12 22V21C7.02944 21 3 16.9706 3 12H2H1C1 18.0751 5.92487 23 12 23V22ZM2 12H3C3 7.02944 7.02944 3 12 3V2V1C5.92487 1 1 5.92487 1 12H2ZM10.5 13.4639L11.2592 12.813L9.01799 10.1987L8.25879 10.8496L7.49959 11.5005L9.7408 14.1147L10.5 13.4639ZM8.25879 10.8496L7.608 10.0904L6.09042 11.3911L6.74121 12.1504L7.392 12.9096L8.90958 11.6089L8.25879 10.8496ZM6.74121 12.1504L5.98195 12.8012L8.98195 16.3012L9.74121 15.6504L10.5005 14.9996L7.50047 11.4996L6.74121 12.1504ZM9.74121 15.6504L9.01644 16.3394L9.09163 16.4185L9.81641 15.7295L10.5412 15.0405L10.466 14.9614L9.74121 15.6504ZM9.81641 15.7295L9.13259 16.4591C9.50071 16.8041 9.9886 17 10.5 17V16V15L10.5002 14.9998L9.81641 15.7295ZM10.5 16V17C11.0853 17 11.639 16.7434 12.018 16.3012L11.2588 15.6504L10.4995 14.9996L10.5 15V16ZM11.2588 15.6504L12.018 16.3012L18.018 9.30118L17.2588 8.65039L16.4995 7.9996L10.4995 14.9996L11.2588 15.6504ZM17.2588 8.65039L17.9096 7.89113L16.392 6.59035L15.7412 7.34961L15.0904 8.10887L16.608 9.40965L17.2588 8.65039ZM15.7412 7.34961L14.982 6.69879L9.74077 12.813L10.5 13.4639L11.2592 14.1147L16.5004 8.00043L15.7412 7.34961Z" fill="white" mask="url(#path-1-outside-1_563_10600)"/>
</svg>
