<svg width="24" height="24" viewBox="0 0 24 24" fill="none" xmlns="http://www.w3.org/2000/svg">
<path d="M13.4845 16.1525H11.4923V10.5128H9.50011V9.01281L10.2208 8.95226C11.3605 8.86818 11.8401 8.47197 11.9601 7.50011H13.4845V16.1525Z" fill="black" fill-opacity="0.9"/>
<path fill-rule="evenodd" clip-rule="evenodd" d="M4.92882 4.92882C8.83399 1.02365 15.1661 1.0238 19.0714 4.92882C22.9766 8.83406 22.9766 15.1662 19.0714 19.0714C15.1662 22.9766 8.83406 22.9766 4.92882 19.0714C1.0238 15.1661 1.02365 8.83399 4.92882 4.92882ZM17.6573 6.34288C14.5331 3.21891 9.467 3.21876 6.34288 6.34288C3.21876 9.467 3.21891 14.5331 6.34288 17.6573C9.46708 20.7815 14.5331 20.7815 17.6573 17.6573C20.7815 14.5331 20.7815 9.46708 17.6573 6.34288Z" fill="black" fill-opacity="0.9"/>
</svg>
