<svg width="24" height="24" viewBox="0 0 24 24" fill="none" xmlns="http://www.w3.org/2000/svg">
<path d="M9.29 7.75H14.71V9.38H11.04L10.72 11.42C11.09 11.22 11.54 11.1 12.07 11.1C13.01 11.1 13.78 11.4 14.34 11.96C14.92 12.54 15.22 13.32 15.22 14.28C15.22 15.28 14.88 16.08 14.22 16.66C13.56 17.24 12.66 17.54 11.54 17.54C10.56 17.54 9.74 17.3 9.1 16.84C8.46 16.36 8.1 15.72 8.02 14.92H10.02C10.1 15.28 10.28 15.54 10.56 15.74C10.84 15.92 11.18 16.02 11.58 16.02C12.02 16.02 12.38 15.88 12.64 15.6C12.9 15.32 13.04 14.94 13.04 14.46C13.04 13.98 12.88 13.6 12.58 13.32C12.28 13.06 11.88 12.92 11.38 12.92C10.88 12.92 10.48 13.06 10.18 13.32L9.98 13.52L8.36 12.96L9.29 7.75Z" fill="black" fill-opacity="0.9"/>
<path fill-rule="evenodd" clip-rule="evenodd" d="M4.92882 4.92833C8.83399 1.02316 15.1661 1.02331 19.0714 4.92833C22.9766 8.83358 22.9766 15.1657 19.0714 19.0709C15.1662 22.9762 8.83406 22.9762 4.92882 19.0709C1.0238 15.1657 1.02365 8.8335 4.92882 4.92833ZM17.6573 6.3424C14.5331 3.21842 9.467 3.21828 6.34288 6.3424C3.21876 9.46652 3.21891 14.5326 6.34288 17.6568C9.46708 20.781 14.5331 20.781 17.6573 17.6568C20.7815 14.5327 20.7815 9.46659 17.6573 6.3424Z" fill="black" fill-opacity="0.9"/>
</svg>
