<svg width="24" height="24" viewBox="0 0 24 24" fill="none" xmlns="http://www.w3.org/2000/svg">
<path d="M12.1702 16.3804C10.3702 16.3804 8.99024 15.4564 8.75024 13.7044L10.7062 13.3924C10.8022 14.2444 11.3902 14.7244 12.1342 14.7244C12.8542 14.7244 13.4062 14.3524 13.4062 13.6324C13.4062 12.9244 12.8302 12.6484 12.0142 12.6484H11.2102V11.0524H11.9902C12.7462 11.0524 13.2382 10.7644 13.2382 10.1164C13.2382 9.52837 12.8302 9.15637 12.1462 9.15637C11.4022 9.15637 10.9222 9.69637 10.8022 10.4284L8.96624 10.2124C9.17024 8.71237 10.3462 7.50037 12.2302 7.50037C14.0542 7.50037 15.1702 8.55637 15.1702 9.98437C15.1702 10.8604 14.6542 11.5564 14.0062 11.8084C14.7742 12.1084 15.3622 12.7324 15.3622 13.8004C15.3622 15.2164 14.1262 16.3804 12.1702 16.3804Z" fill="black" fill-opacity="0.9"/>
<path fill-rule="evenodd" clip-rule="evenodd" d="M4.92882 4.92882C8.83399 1.02365 15.1661 1.0238 19.0714 4.92882C22.9766 8.83406 22.9766 15.1662 19.0714 19.0714C15.1662 22.9766 8.83406 22.9766 4.92882 19.0714C1.0238 15.1661 1.02365 8.83399 4.92882 4.92882ZM17.6573 6.34288C14.5331 3.21891 9.467 3.21876 6.34288 6.34288C3.21876 9.467 3.21891 14.5331 6.34288 17.6573C9.46708 20.7815 14.5331 20.7815 17.6573 17.6573C20.7815 14.5331 20.7815 9.46708 17.6573 6.34288Z" fill="black" fill-opacity="0.9"/>
</svg>
