<svg width="24" height="24" viewBox="0 0 24 24" fill="none" xmlns="http://www.w3.org/2000/svg">
<path fill-rule="evenodd" clip-rule="evenodd" d="M4.92882 4.92882C8.83399 1.02365 15.1661 1.0238 19.0714 4.92882C22.9766 8.83406 22.9766 15.1662 19.0714 19.0714C15.1662 22.9766 8.83406 22.9766 4.92882 19.0714C1.0238 15.1661 1.02365 8.83399 4.92882 4.92882ZM17.6573 6.34288C14.5331 3.21891 9.467 3.21876 6.34288 6.34288C3.21876 9.467 3.21891 14.5331 6.34288 17.6573C9.46708 20.7815 14.5331 20.7815 17.6573 17.6573C20.7815 14.5331 20.7815 9.46708 17.6573 6.34288Z" fill="black" fill-opacity="0.9"/>
<path d="M9.04826 16.0003V14.4043L11.8683 11.8363C13.0803 10.7443 13.2723 10.4563 13.2723 9.89233C13.2723 9.38833 12.8523 8.95633 12.1323 8.95633C11.3523 8.95633 10.8843 9.48433 10.9083 10.3843L9.00026 10.1083C9.02426 8.42833 10.3443 7.25233 12.1443 7.25233C14.0643 7.25233 15.2763 8.30833 15.2763 9.79633C15.2763 10.8163 14.9163 11.4283 13.4043 12.7483L11.5803 14.2843H15.3123V16.0003H9.04826Z" fill="black" fill-opacity="0.9"/>
<path fill-rule="evenodd" clip-rule="evenodd" d="M4.92882 4.92882C8.83399 1.02365 15.1661 1.0238 19.0714 4.92882C22.9766 8.83406 22.9766 15.1662 19.0714 19.0714C15.1662 22.9766 8.83406 22.9766 4.92882 19.0714C1.0238 15.1661 1.02365 8.83399 4.92882 4.92882ZM17.6573 6.34288C14.5331 3.21891 9.467 3.21876 6.34288 6.34288C3.21876 9.467 3.21891 14.5331 6.34288 17.6573C9.46708 20.7815 14.5331 20.7815 17.6573 17.6573C20.7815 14.5331 20.7815 9.46708 17.6573 6.34288Z" fill="black" fill-opacity="0.9"/>
<path d="M9.04826 16.0003V14.4043L11.8683 11.8363C13.0803 10.7443 13.2723 10.4563 13.2723 9.89233C13.2723 9.38833 12.8523 8.95633 12.1323 8.95633C11.3523 8.95633 10.8843 9.48433 10.9083 10.3843L9.00026 10.1083C9.02426 8.42833 10.3443 7.25233 12.1443 7.25233C14.0643 7.25233 15.2763 8.30833 15.2763 9.79633C15.2763 10.8163 14.9163 11.4283 13.4043 12.7483L11.5803 14.2843H15.3123V16.0003H9.04826Z" fill="black" fill-opacity="0.9"/>
</svg>
