<svg width="24" height="24" viewBox="0 0 24 24" fill="none" xmlns="http://www.w3.org/2000/svg">
<path fill-rule="evenodd" clip-rule="evenodd" d="M13.7179 11C15.0191 11 15.9739 12.2231 15.6583 13.4854L14.5901 17.7574C14.4323 18.3886 14.9097 19 15.5603 19H17.4992V21H2.78042C1.47929 21 0.524419 19.7769 0.839989 18.5146L2.33999 12.5146C2.56269 11.6245 3.36281 11 4.28042 11H13.7179ZM4.47561 13C4.3609 13 4.2609 13.0781 4.23308 13.1894L2.85808 18.6894C2.81863 18.8472 2.93797 19 3.10061 19H12.0237C12.1384 19 12.2384 18.9219 12.2662 18.8106L13.6403 13.3106C13.6797 13.1528 13.5604 13 13.3978 13H4.47561Z" fill="#101010"/>
<path d="M19.7296 3C20.9514 3.00032 21.9945 3.88368 22.1955 5.08887L23.6955 14.0889C23.9493 15.6124 22.7741 16.9996 21.2296 17H17.4992V15H21.2296C21.5382 14.9996 21.7734 14.7224 21.7228 14.418L20.2228 5.41797C20.1827 5.17709 19.9738 5.00032 19.7296 5H4.79311C4.48251 5.00028 4.24392 5.28192 4.298 5.59277C4.41642 6.27033 4.54708 7.0311 4.64858 7.64941C4.69922 7.95787 4.74297 8.23535 4.77456 8.45117C4.79988 8.62419 4.83315 8.85636 4.83315 9H2.83315C2.83315 9.03836 2.83137 8.98263 2.79604 8.74121C2.76695 8.54244 2.72491 8.27798 2.67495 7.97363C2.57514 7.36563 2.44537 6.61306 2.32729 5.9375C2.05999 4.40767 3.23524 3.00028 4.79311 3H19.7296Z" fill="#101010"/>
</svg>
