<svg width="24" height="24" viewBox="0 0 24 24" fill="none" xmlns="http://www.w3.org/2000/svg">
<path d="M21.2262 9.00746C20.7923 8.19227 20.1442 7.51096 19.3516 7.03693C18.5591 6.5629 17.6522 6.31412 16.7288 6.31742H2.48642C2.38988 6.31823 2.29573 6.34751 2.21575 6.40159C2.13578 6.45568 2.07354 6.53216 2.03684 6.62145C2.00013 6.71075 1.99059 6.80889 2.00941 6.90358C2.02823 6.99827 2.07457 7.08531 2.14263 7.15378L5.24482 10.2741C5.38053 10.4105 5.54187 10.5187 5.71956 10.5926C5.89726 10.6664 6.0878 10.7044 6.28022 10.7043H16.3206C16.4907 10.7026 16.6594 10.7344 16.8171 10.7979C16.9749 10.8614 17.1185 10.9553 17.24 11.0743C17.3614 11.1933 17.4582 11.3351 17.5249 11.4915C17.5916 11.6479 17.6267 11.816 17.6285 11.986C17.6302 12.156 17.5984 12.3247 17.5349 12.4825C17.4714 12.6402 17.3775 12.7839 17.2585 12.9054C17.1395 13.0268 16.9977 13.1236 16.8413 13.1903C16.6848 13.2569 16.5168 13.2921 16.3468 13.2938H9.42464C9.32792 13.2942 9.23349 13.3232 9.15322 13.3772C9.07294 13.4311 9.01039 13.5076 8.97344 13.5969C8.93648 13.6863 8.92677 13.7846 8.94553 13.8795C8.96428 13.9744 9.01066 14.0616 9.07883 14.1302L12.183 17.2525C12.3187 17.389 12.48 17.4973 12.6577 17.5712C12.8354 17.645 13.026 17.6829 13.2184 17.6827H16.3488C20.422 17.6827 23.5021 13.328 21.2262 9.00545" fill="#101010"/>
</svg>
