<svg width="24" height="24" viewBox="0 0 24 24" fill="none" xmlns="http://www.w3.org/2000/svg">
<path d="M11.9999 5.33301C15.6817 5.33305 18.6665 8.31788 18.6666 11.9997C18.6666 15.6815 15.6818 18.6663 11.9999 18.6663C8.31802 18.6663 5.33325 15.6816 5.33325 11.9997H6.66659C6.66659 14.9452 9.0544 17.333 11.9999 17.333C14.9454 17.333 17.3333 14.9452 17.3333 11.9997C17.3332 9.05426 14.9453 6.66638 11.9999 6.66634C10.1677 6.66634 8.55076 7.59106 7.59041 8.99967H9.33325V10.333H5.99992C5.63173 10.333 5.33325 10.0345 5.33325 9.66634V6.33301H6.66659V7.99902C7.88257 6.38051 9.81858 5.33301 11.9999 5.33301Z" fill="#959595"/>
<path d="M12.3333 11.9997H14.3333V13.333H11.6666C11.2984 13.333 10.9999 13.0345 10.9999 12.6663V9.33301H12.3333V11.9997Z" fill="#959595"/>
</svg>
