<svg width="24" height="24" viewBox="0 0 24 24" fill="none" xmlns="http://www.w3.org/2000/svg">
<path d="M13.9999 7.87884C14.5857 7.29305 15.5352 7.29305 16.121 7.87884C16.7068 8.46462 16.7068 9.41414 16.121 9.99993C15.5352 10.5856 14.5857 10.5857 13.9999 9.99993C13.4142 9.41417 13.4142 8.46463 13.9999 7.87884Z" fill="#101010"/>
<path fill-rule="evenodd" clip-rule="evenodd" d="M12.1318 2.00872L20.1318 3.07122L20.2958 3.10735C20.6658 3.22174 20.9424 3.54414 20.9921 3.93841L21.9921 11.8749C22.0313 12.1857 21.9224 12.497 21.6982 12.7157L11.9628 22.2157C11.571 22.598 10.9446 22.5941 10.5576 22.207L1.7929 13.4423C1.40581 13.0552 1.4019 12.4289 1.78412 12.037L11.2841 2.30169C11.5045 2.0758 11.8189 1.96714 12.1318 2.00872ZM3.90521 12.7265L11.2724 20.0937L19.9452 11.6308L19.1035 4.95208L12.3652 4.05657L3.90521 12.7265Z" fill="#101010"/>
</svg>
