<svg width="18" height="18" viewBox="0 0 18 18" fill="none" xmlns="http://www.w3.org/2000/svg">
<path d="M9 5.625C9.82843 5.625 10.5 6.29657 10.5 7.125C10.5 7.95342 9.82842 8.625 9 8.625C8.1716 8.62498 7.50001 7.95341 7.5 7.125C7.5 6.29659 8.17159 5.62503 9 5.625Z" fill="#101010"/>
<path fill-rule="evenodd" clip-rule="evenodd" d="M9 0.75C10.786 0.75 12.5012 1.4474 13.7681 2.69238C15.0353 3.93781 15.75 5.6297 15.75 7.39673C15.7499 9.99108 14.0737 12.3564 12.5486 13.9922C11.7696 14.8276 10.993 15.5116 10.4121 15.9866C10.1212 16.2245 9.87806 16.4114 9.70606 16.5396C9.62001 16.6037 9.5515 16.6534 9.50391 16.6875C9.4802 16.7045 9.46131 16.7171 9.44824 16.7263C9.4417 16.7309 9.4366 16.7347 9.43286 16.7373C9.43109 16.7385 9.42847 16.7402 9.42847 16.7402L9.427 16.7417L9 16.125L9.42627 16.7424C9.1698 16.9195 8.83021 16.9195 8.57373 16.7424L8.57153 16.7402C8.57153 16.7402 8.56891 16.7385 8.56714 16.7373C8.5634 16.7347 8.55831 16.7309 8.55176 16.7263C8.53869 16.7171 8.5198 16.7045 8.49609 16.6875C8.4485 16.6534 8.37999 16.6037 8.29395 16.5396C8.12194 16.4114 7.87883 16.2245 7.58789 15.9866C7.00704 15.5116 6.23036 14.8276 5.45142 13.9922C3.92629 12.3564 2.25008 9.99108 2.25 7.39673C2.25 5.6297 2.96466 3.93781 4.23193 2.69238C5.49877 1.4474 7.21397 0.75 9 0.75ZM9 2.25C7.60348 2.25 6.26656 2.79512 5.28296 3.76172C4.2998 4.72793 3.75 6.03603 3.75 7.39673C3.75008 9.38843 5.07382 11.3872 6.54858 12.969C7.26961 13.7423 7.99297 14.3807 8.53711 14.8257C8.71243 14.9691 8.86938 15.0908 9 15.1912C9.13062 15.0908 9.28758 14.9691 9.46289 14.8257C10.007 14.3807 10.7304 13.7423 11.4514 12.969C12.9262 11.3872 14.2499 9.38843 14.25 7.39673C14.25 6.03603 13.7002 4.72793 12.717 3.76172C11.7334 2.79512 10.3965 2.25 9 2.25Z" fill="#101010"/>
</svg>
