<svg width="24" height="24" viewBox="0 0 24 24" fill="none" xmlns="http://www.w3.org/2000/svg">
<path fill-rule="evenodd" clip-rule="evenodd" d="M17 2C19.7614 2 22 4.23858 22 7V17C22 19.7614 19.7614 22 17 22H7C4.23858 22 2 19.7614 2 17V7C2 4.23858 4.23858 2 7 2H17ZM17.7292 13.7171C17.6827 13.6624 17.6011 13.6511 17.5404 13.6903C17.2312 13.8919 16.8882 14.043 16.5435 14.172C15.7259 14.4778 14.4204 14.8018 12.5534 14.8019C10.6864 14.8019 9.38094 14.4778 8.56331 14.172C8.21845 14.043 7.8757 13.8919 7.56641 13.6903C7.50573 13.6507 7.42342 13.6625 7.37679 13.7171L6.47428 14.7791C6.42449 14.8379 6.43312 14.9253 6.49626 14.9704C6.94192 15.2836 7.44869 15.5151 7.95703 15.7052C8.96913 16.0837 10.4803 16.4442 12.5534 16.4442C14.6264 16.4441 16.1369 16.0837 17.1489 15.7052C17.6574 15.515 18.1637 15.2838 18.6097 14.9704C18.6727 14.9254 18.6819 14.8379 18.6325 14.7791L17.7292 13.7171ZM8.87256 8.11084C8.75762 8.11088 8.66437 8.20426 8.66423 8.31917V10.6808C8.66437 10.7957 8.75762 10.8891 8.87256 10.8892H10.1226C10.2373 10.8889 10.3307 10.7956 10.3309 10.6808V8.31917C10.3307 8.20437 10.2373 8.11106 10.1226 8.11084H8.87256ZM17.2059 8.11084C17.091 8.11088 16.9977 8.20426 16.9976 8.31917V10.6808C16.9977 10.7957 17.091 10.8891 17.2059 10.8892H18.4559C18.5707 10.8889 18.6641 10.7956 18.6642 10.6808V8.31917C18.6641 8.20437 18.5707 8.11106 18.4559 8.11084H17.2059Z" fill="#0F0F0F"/>
</svg>
