<svg width="24" height="24" viewBox="0 0 24 24" fill="none" xmlns="http://www.w3.org/2000/svg">
<path d="M12 4.76953C13.6569 4.76953 15 6.11268 15 7.76953V17.7695C15 19.4264 13.6569 20.7695 12 20.7695H6C4.34315 20.7695 3 19.4264 3 17.7695V7.76953C3 6.11268 4.34315 4.76953 6 4.76953H12ZM18.0928 5.34961C19.7266 5.624 20.829 7.17175 20.5547 8.80566L18.9932 18.1045C18.7515 19.5442 17.522 20.5703 16.1152 20.6064C16.6526 19.8284 16.9742 18.8917 16.9961 17.8799C17.0058 17.8452 17.0154 17.8097 17.0215 17.7734L18.582 8.47461C18.6734 7.93005 18.3062 7.41384 17.7617 7.32227L16.9648 7.18848C16.8732 6.39722 16.5975 5.66274 16.1807 5.02832L18.0928 5.34961ZM6 6.76953C5.44772 6.76953 5 7.21725 5 7.76953V17.7695C5 18.3218 5.44772 18.7695 6 18.7695H12C12.5523 18.7695 13 18.3218 13 17.7695V7.76953C13 7.21725 12.5523 6.76953 12 6.76953H6Z" fill="black"/>
</svg>
