<svg width="24" height="24" viewBox="0 0 24 24" fill="none" xmlns="http://www.w3.org/2000/svg">
<path d="M5.05089 19.2012H18.5421V13.8223H20.5421V20.2012C20.542 20.7534 20.0943 21.2012 19.5421 21.2012H4.05089C3.49875 21.2011 3.05098 20.7533 3.05089 20.2012V13.8223H5.05089V19.2012ZM17.2638 2.79785C17.5776 2.79785 17.8711 2.94516 18.0587 3.19043L18.1319 3.30176L21.7775 9.68066C21.9285 9.94502 21.9506 10.264 21.838 10.5469C21.7252 10.8297 21.4899 11.0458 21.1984 11.1338C17.2084 12.3375 14.736 11.9704 12.2218 11.5625C9.80178 11.1699 7.32547 10.7372 3.08019 11.6113C2.70445 11.6886 2.31722 11.5449 2.0841 11.2402C1.85121 10.9356 1.81361 10.524 1.98644 10.1816L5.43664 3.34766C5.60675 3.011 5.95201 2.7979 6.32921 2.79785H17.2638ZM6.94445 4.79785L4.66418 9.31543C8.1211 8.85161 10.4285 9.24499 12.5421 9.58789C14.6544 9.93059 16.5475 10.2156 19.3986 9.54688L16.6837 4.79785H6.94445Z" fill="black"/>
</svg>
