<svg width="24" height="24" viewBox="0 0 24 24" fill="none" xmlns="http://www.w3.org/2000/svg">
<path fill-rule="evenodd" clip-rule="evenodd" d="M8 6C8.55229 6 9 6.44772 9 7C9 7.55228 8.55229 8 8 8C7.44772 8 7 7.55228 7 7C7 6.44772 7.44772 6 8 6ZM8 10C9.65685 10 11 8.65685 11 7C11 5.34315 9.65685 4 8 4C6.34315 4 5 5.34315 5 7C5 8.65685 6.34315 10 8 10ZM8 12C9.43227 12 10.8042 12.3373 11.9949 12.9368C13.1781 12.3382 14.5479 12 16 12C20.2681 12 24 14.9949 24 19C24 19.5523 23.5523 20 23 20H15H9H1C0.447715 20 0 19.5523 0 19C0 14.9949 3.7319 12 8 12ZM8 14C11.016 14 13.3274 15.8029 13.875 18H9H2.125C2.67262 15.8029 4.98399 14 8 14ZM19 7C19 8.65685 17.6569 10 16 10C14.3431 10 13 8.65685 13 7C13 5.34315 14.3431 4 16 4C17.6569 4 19 5.34315 19 7Z" fill="#101010"/>
</svg>
