<svg width="24" height="24" viewBox="0 0 24 24" fill="none" xmlns="http://www.w3.org/2000/svg">
<mask id="mask0_2900_41794" style="mask-type:luminance" maskUnits="userSpaceOnUse" x="0" y="0" width="24" height="24">
<path d="M23.9862 0.00292969H0.0195312V23.9696H23.9862V0.00292969Z" fill="white"/>
</mask>
<g mask="url(#mask0_2900_41794)">
<mask id="mask1_2900_41794" style="mask-type:luminance" maskUnits="userSpaceOnUse" x="2" y="2" width="20" height="20">
<path d="M21.9997 2.07031H2.00586V21.8857H21.9997V2.07031Z" fill="white"/>
</mask>
<g mask="url(#mask1_2900_41794)">
<path d="M9.67437 9.28307V7.4006C9.67437 7.24206 9.73388 7.12312 9.87252 7.04395L13.6574 4.86426C14.1726 4.56704 14.7869 4.42841 15.4209 4.42841C17.7987 4.42841 19.3047 6.27127 19.3047 8.23291C19.3047 8.37159 19.3047 8.53013 19.2849 8.68867L15.3614 6.39004C15.1236 6.25141 14.8858 6.25141 14.648 6.39004L9.67437 9.28307ZM18.512 16.6148V12.1166C18.512 11.8391 18.393 11.641 18.1553 11.5023L13.1817 8.6093L14.8066 7.67791C14.9452 7.59874 15.0642 7.59874 15.2028 7.67791L18.9877 9.8576C20.0776 10.4918 20.8107 11.8391 20.8107 13.1469C20.8107 14.6528 19.919 16.0399 18.512 16.6146V16.6148ZM8.50528 12.6518L6.88042 11.7007C6.74179 11.6215 6.68228 11.5025 6.68228 11.344V6.98465C6.68228 4.86447 8.30713 3.25931 10.5067 3.25931C11.339 3.25931 12.1117 3.53679 12.7657 4.03216L8.86213 6.29118C8.62442 6.42981 8.50549 6.62796 8.50549 6.90548V12.6519L8.50528 12.6518ZM12.0027 14.6729L9.67437 13.3651V10.591L12.0027 9.28327L14.3309 10.591V13.3651L12.0027 14.6729ZM13.4988 20.6968C12.6665 20.6968 11.8938 20.4193 11.2398 19.924L15.1433 17.665C15.3811 17.5263 15.5 17.3282 15.5 17.0507V11.3042L17.1448 12.2553C17.2834 12.3345 17.3429 12.4534 17.3429 12.612V16.9713C17.3429 19.0915 15.6982 20.6967 13.4988 20.6967V20.6968ZM8.8025 16.278L5.01765 14.0984C3.92773 13.4642 3.19465 12.1168 3.19465 10.8091C3.19465 9.28327 4.10617 7.91603 5.51298 7.34134V11.8592C5.51298 12.1367 5.63196 12.3348 5.86967 12.4735L10.8236 15.3466L9.19875 16.278C9.06011 16.3572 8.94114 16.3572 8.8025 16.278ZM8.58465 19.5277C6.3455 19.5277 4.70078 17.8434 4.70078 15.7628C4.70078 15.6042 4.72064 15.4457 4.74034 15.2872L8.64396 17.5462C8.88167 17.6849 9.11958 17.6849 9.35729 17.5462L14.3309 14.6731V16.5555C14.3309 16.7141 14.2715 16.833 14.1328 16.9122L10.348 19.0919C9.83275 19.3891 9.21845 19.5277 8.58445 19.5277H8.58465ZM13.4988 21.8857C15.8965 21.8857 17.8977 20.1816 18.3536 17.9226C20.5729 17.3479 21.9997 15.2673 21.9997 13.1471C21.9997 11.7599 21.4053 10.4126 20.3352 9.44161C20.4343 9.02545 20.4937 8.6093 20.4937 8.19335C20.4937 5.35979 18.1951 3.23941 15.5398 3.23941C15.0049 3.23941 14.4897 3.31857 13.9744 3.49702C13.0826 2.62511 11.8541 2.07031 10.5067 2.07031C8.10903 2.07031 6.10779 3.77434 5.65186 6.03336C3.43257 6.60805 2.00586 8.68867 2.00586 10.8088C2.00586 12.196 2.60026 13.5433 3.67032 14.5143C3.57125 14.9305 3.51178 15.3466 3.51178 15.7626C3.51178 18.5962 5.8104 20.7165 8.46568 20.7165C9.0006 20.7165 9.51583 20.6374 10.0311 20.4589C10.9227 21.3308 12.1512 21.8857 13.4988 21.8857Z" fill="black"/>
</g>
</g>
</svg>
