<svg width="24" height="24" viewBox="0 0 24 24" fill="none" xmlns="http://www.w3.org/2000/svg">
<path fill-rule="evenodd" clip-rule="evenodd" d="M20.5 15.1465C21.9455 15.5769 23 16.9146 23 18.5C23 20.433 21.433 22 19.5 22C17.567 22 16 20.433 16 18.5C16 16.9146 17.0545 15.5769 18.5 15.1465V11H17V8H18.5V6H20.5V15.1465ZM19.5 17C18.6716 17 18 17.6716 18 18.5C18 19.3284 18.6716 20 19.5 20C20.3284 20 21 19.3284 21 18.5C21 17.6716 20.3284 17 19.5 17Z" fill="black" fill-opacity="0.9"/>
<path d="M12 12C13.5576 12 15.0382 12.2839 16.3604 12.7949L15.6396 14.6602C14.552 14.2397 13.316 14 12 14C7.84138 14 4.74385 16.3079 4.11816 19H14V21H3C2.44772 21 2 20.5523 2 20C2 15.3624 6.72559 12 12 12Z" fill="black" fill-opacity="0.9"/>
<path fill-rule="evenodd" clip-rule="evenodd" d="M12 2.5C14.2091 2.5 16 4.29086 16 6.5C16 8.70914 14.2091 10.5 12 10.5C9.79086 10.5 8 8.70914 8 6.5C8 4.29086 9.79086 2.5 12 2.5ZM12 4.5C10.8954 4.5 10 5.39543 10 6.5C10 7.60457 10.8954 8.5 12 8.5C13.1046 8.5 14 7.60457 14 6.5C14 5.39543 13.1046 4.5 12 4.5Z" fill="black" fill-opacity="0.9"/>
</svg>
