<svg width="24" height="24" viewBox="0 0 24 24" fill="none" xmlns="http://www.w3.org/2000/svg">
<path d="M22 21H15V19H22V21Z" fill="#101010"/>
<path d="M8.07324 3.5C9.01991 3.50016 9.88513 4.03516 10.3086 4.88184L12.5576 9.37891C12.9481 9.27534 13.3277 9.16551 13.6944 9.04785L14.3057 10.9521C13.8837 11.0876 13.4476 11.2127 13 11.3301V20C13 20.5522 12.5523 20.9999 12 21H8C7.44772 21 7 20.5523 7 20V18H2V16H8C8.55223 16.0001 9 16.4478 9 17V19H11V11.7822C8.49529 12.263 4.73905 12.5 2 12.5V10.5C4.61547 10.5 8.21366 10.2731 10.5469 9.83105L8.52051 5.77637C8.43588 5.6071 8.26247 5.50016 8.07324 5.5H2V3.5H8.07324Z" fill="#101010"/>
</svg>
