<svg width="24" height="24" viewBox="0 0 24 24" fill="none" xmlns="http://www.w3.org/2000/svg">
<path fill-rule="evenodd" clip-rule="evenodd" d="M12 3C7.04 3 3 7.04 3 12C3 16.96 7.04 21 12 21C16.96 21 21 16.96 21 12C21 7.04 16.96 3 12 3ZM12 19C8.14 19 5 15.86 5 12C5 8.14 8.14 5 12 5C15.86 5 19 8.14 19 12C19 15.86 15.86 19 12 19ZM12 17C12.6904 17 13.25 16.4404 13.25 15.75C13.25 15.0596 12.6904 14.5 12 14.5C11.3096 14.5 10.75 15.0596 10.75 15.75C10.75 16.4404 11.3096 17 12 17ZM9 9.75C9 8.23 10.35 7 12 7C13.65 7 15 8.23 15 9.75C15 10.86 14.34 11.52 13.81 12.04C13.28 12.57 13 12.87 13 13.5H11C11 12.0198 11.7993 11.2206 12.3883 10.6317L12.4 10.62C12.84 10.19 13 10.01 13 9.75C13 9.34 12.54 9 12 9C11.46 9 11 9.34 11 9.75H9Z" fill="black" fill-opacity="0.9"/>
</svg>
