<svg width="24" height="24" viewBox="0 0 24 24" fill="none" xmlns="http://www.w3.org/2000/svg">
<g clip-path="url(#clip0_629_4234)">
<path d="M8 14C11.4639 14 14 16.3776 14 19V20H2V19C2 16.3776 4.53612 14 8 14ZM16 12C20.2681 12 24 14.9949 24 19C24 19.5523 23.5523 20 23 20H16V19C16 16.3101 14.3157 14.0777 11.917 12.9004C11.9428 12.913 11.9695 12.9236 11.9951 12.9365C13.1782 12.338 14.548 12 16 12ZM8 4C9.65685 4 11 5.34315 11 7C11 8.65685 9.65685 10 8 10C6.34315 10 5 8.65685 5 7C5 5.34315 6.34315 4 8 4ZM16 4C17.6569 4 19 5.34315 19 7C19 8.65685 17.6569 10 16 10C14.3431 10 13 8.65685 13 7C13 5.34315 14.3431 4 16 4Z" fill="#101010"/>
<path d="M8 11C12.5911 11 16.3779 14.4372 16.9307 18.8789C17.0832 20.1066 16.0664 21 15 21H1C-0.0664297 21 -1.0832 20.1066 -0.930664 18.8789L-0.869141 18.4648C-0.140026 14.2252 3.55249 11 8 11Z" fill="#101010" stroke="white" stroke-width="2" stroke-linejoin="round"/>
</g>
<defs>
<clipPath id="clip0_629_4234">
<rect width="24" height="24" fill="white"/>
</clipPath>
</defs>
</svg>
