<svg width="140" height="179" viewBox="0 0 140 179" fill="none" xmlns="http://www.w3.org/2000/svg">
<g filter="url(#filter0_dd_3304_18542)">
<path d="M79.5996 15C86.3037 15 91.3921 14.9989 95.4443 15.3301C99.5083 15.6622 102.618 16.3339 105.35 17.7256C110.053 20.1224 113.878 23.9465 116.274 28.6504C117.666 31.3818 118.338 34.4917 118.67 38.5557C119.001 42.6079 119 47.6963 119 54.4004V97.5996C119 104.304 119.001 109.392 118.67 113.444C118.338 117.508 117.666 120.618 116.274 123.35C113.878 128.053 110.053 131.878 105.35 134.274C103.542 135.196 100.981 135.783 98.0625 136.174C95.1217 136.567 91.7217 136.772 88.1777 136.879C84.6257 136.986 81.3162 138.689 79.2715 141.561L72.9355 150.459L72.8877 150.527L72.8281 150.586C71.2661 152.148 68.7339 152.148 67.1719 150.586L67.1133 150.527L67.0645 150.459L60.7275 141.561C58.6828 138.689 55.3732 136.986 51.8213 136.879C48.2777 136.772 44.8781 136.567 41.9375 136.174C39.0193 135.783 36.4583 135.196 34.6504 134.274C29.9465 131.878 26.1224 128.053 23.7256 123.35C22.3339 120.618 21.6622 117.508 21.3301 113.444C20.9989 109.392 21 104.304 21 97.5996V54.4004C21 47.6963 20.9989 42.6079 21.3301 38.5557C21.6622 34.4917 22.3339 31.3818 23.7256 28.6504C26.1224 23.9465 29.9465 20.1224 34.6504 17.7256C37.3818 16.3339 40.4917 15.6622 44.5557 15.3301C48.6079 14.9989 53.6963 15 60.4004 15H79.5996Z" fill="white" stroke="white" stroke-width="2"/>
</g>
<defs>
<filter id="filter0_dd_3304_18542" x="0" y="0" width="140" height="179" filterUnits="userSpaceOnUse" color-interpolation-filters="sRGB">
<feFlood flood-opacity="0" result="BackgroundImageFix"/>
<feColorMatrix in="SourceAlpha" type="matrix" values="0 0 0 0 0 0 0 0 0 0 0 0 0 0 0 0 0 0 127 0" result="hardAlpha"/>
<feOffset dy="6"/>
<feGaussianBlur stdDeviation="10"/>
<feComposite in2="hardAlpha" operator="out"/>
<feColorMatrix type="matrix" values="0 0 0 0 0 0 0 0 0 0 0 0 0 0 0 0 0 0 0.25 0"/>
<feBlend mode="normal" in2="BackgroundImageFix" result="effect1_dropShadow_3304_18542"/>
<feColorMatrix in="SourceAlpha" type="matrix" values="0 0 0 0 0 0 0 0 0 0 0 0 0 0 0 0 0 0 127 0" result="hardAlpha"/>
<feOffset dy="4"/>
<feGaussianBlur stdDeviation="2"/>
<feComposite in2="hardAlpha" operator="out"/>
<feColorMatrix type="matrix" values="0 0 0 0 0 0 0 0 0 0 0 0 0 0 0 0 0 0 0.05 0"/>
<feBlend mode="normal" in2="effect1_dropShadow_3304_18542" result="effect2_dropShadow_3304_18542"/>
<feBlend mode="normal" in="SourceGraphic" in2="effect2_dropShadow_3304_18542" result="shape"/>
</filter>
</defs>
</svg>
