<svg width="24" height="24" viewBox="0 0 24 24" fill="none" xmlns="http://www.w3.org/2000/svg">
<path fill-rule="evenodd" clip-rule="evenodd" d="M12 7.2002C14.6363 7.20021 16.7519 9.36113 16.7519 12C16.7519 14.6389 14.6363 16.7998 12 16.7998C9.36365 16.7998 7.24802 14.6389 7.24802 12C7.24802 9.36112 9.36365 7.2002 12 7.2002ZM12 9.2002C10.4922 9.2002 9.24802 10.4415 9.24802 12C9.24802 13.5585 10.4922 14.7998 12 14.7998C13.5077 14.7998 14.7519 13.5585 14.7519 12C14.7519 10.4415 13.5077 9.20021 12 9.2002Z" fill="#101010"/>
<path fill-rule="evenodd" clip-rule="evenodd" d="M13.3672 1.5C14.7302 1.50002 15.8134 2.61563 15.8135 3.96484C15.8135 4.1385 15.926 4.36312 16.1885 4.51367C16.2342 4.53992 16.2799 4.56668 16.3252 4.59375C16.5853 4.74942 16.8227 4.73046 16.958 4.65137C18.1357 3.96269 19.6354 4.3767 20.3076 5.55566L21.6748 7.95313C22.3429 9.12532 21.9507 10.63 20.7803 11.3145C20.6413 11.3959 20.5001 11.6039 20.5029 11.9199C20.5032 11.9466 20.5039 11.9733 20.5039 12C20.5039 12.0114 20.503 12.023 20.5029 12.0342C20.5028 12.0495 20.503 12.0648 20.5029 12.0801C20.5 12.3961 20.6413 12.6041 20.7803 12.6855C21.9507 13.37 22.3429 14.8747 21.6748 16.0469L20.3076 18.4443C19.6354 19.6233 18.1357 20.0373 16.958 19.3486C16.8227 19.2695 16.5853 19.2506 16.3252 19.4062L16.1885 19.4863C15.926 19.6369 15.8135 19.8615 15.8135 20.0352C15.8134 21.3844 14.7302 22.5 13.3672 22.5H10.6328C9.26973 22.5 8.18658 21.3844 8.1865 20.0352C8.1865 19.8833 8.10041 19.6921 7.9033 19.5459L7.8115 19.4863C7.76575 19.4601 7.72004 19.4333 7.67478 19.4062C7.41466 19.2506 7.17726 19.2696 7.04197 19.3486C5.86426 20.0373 4.36458 19.6233 3.69236 18.4443L2.32517 16.0469C1.65708 14.8747 2.0492 13.37 3.2197 12.6855C3.35861 12.6041 3.49991 12.3961 3.49705 12.0801C3.49681 12.0534 3.49607 12.0267 3.49607 12C3.49607 11.9733 3.49681 11.9466 3.49705 11.9199C3.49991 11.6039 3.35861 11.3959 3.2197 11.3145C2.04919 10.63 1.65707 9.12533 2.32517 7.95312L3.69236 5.55566C4.36458 4.37671 5.86427 3.96267 7.04197 4.65137C7.17726 4.73045 7.41466 4.74942 7.67478 4.59375C7.72001 4.56668 7.76572 4.53992 7.8115 4.51367C8.07394 4.36312 8.1865 4.13849 8.1865 3.96484C8.18658 2.61562 9.26973 1.5 10.6328 1.5L13.3672 1.5ZM10.6328 3.5C10.3983 3.5 10.1866 3.69602 10.1865 3.96484C10.1865 4.98471 9.56951 5.81149 8.80662 6.24902C8.77165 6.26907 8.7367 6.28986 8.70213 6.31055C7.94647 6.76276 6.91873 6.89634 6.0322 6.37793C5.82605 6.25741 5.55666 6.32348 5.42967 6.5459L4.06248 8.94336C3.93126 9.17364 4.0145 9.46248 4.22849 9.58789C5.10996 10.1034 5.50483 11.0602 5.49705 11.9375C5.49686 11.9581 5.49607 11.9793 5.49607 12C5.49607 12.0207 5.49686 12.0418 5.49705 12.0625C5.50484 12.9398 5.10997 13.8966 4.22849 14.4121C4.0145 14.5375 3.93127 14.8264 4.06248 15.0566L5.42967 17.4541C5.55667 17.6765 5.82605 17.7426 6.0322 17.6221C6.91872 17.1037 7.94647 17.2372 8.70213 17.6895C8.73667 17.7101 8.77163 17.7309 8.80662 17.751C9.56951 18.1885 10.1865 19.0153 10.1865 20.0352C10.1866 20.304 10.3983 20.5 10.6328 20.5H13.3672C13.6016 20.5 13.8134 20.304 13.8135 20.0352C13.8135 19.0153 14.4304 18.1885 15.1933 17.751C15.2283 17.7309 15.2633 17.7101 15.2978 17.6895C16.0535 17.2372 17.0812 17.1037 17.9678 17.6221C18.1739 17.7426 18.4433 17.6765 18.5703 17.4541L19.9375 15.0566C20.0687 14.8264 19.9854 14.5375 19.7715 14.4121C18.89 13.8966 18.4951 12.9398 18.5029 12.0625C18.503 12.0508 18.5038 12.038 18.5039 12.0264C18.5039 12.0175 18.5039 12.0087 18.5039 12C18.5039 11.9794 18.5031 11.9589 18.5029 11.9385C18.4951 11.0612 18.89 10.1034 19.7715 9.58789C19.9854 9.46248 20.0687 9.17363 19.9375 8.94336L18.5703 6.5459C18.4433 6.32347 18.1739 6.25743 17.9678 6.37793C17.0812 6.89635 16.0535 6.76276 15.2978 6.31055C15.2633 6.28986 15.2283 6.26908 15.1933 6.24902C14.4304 5.81149 13.8135 4.98472 13.8135 3.96484C13.8134 3.69603 13.6016 3.50002 13.3672 3.5L10.6328 3.5Z" fill="#101010"/>
</svg>
