<svg width="24" height="24" viewBox="0 0 24 24" fill="none" xmlns="http://www.w3.org/2000/svg">
<path d="M17.229 9.18476L12.063 14.6848C11.8744 14.8855 11.6109 14.9997 11.3355 15.0002C11.06 15.0005 10.7961 14.887 10.607 14.6867L7.77395 11.6867L9.22707 10.3137L11.3316 12.5412L15.772 7.81561L17.229 9.18476Z" fill="#101010"/>
<path fill-rule="evenodd" clip-rule="evenodd" d="M12.3817 2.07541L20.8749 5.57541C21.2238 5.75121 21.4771 6.05341 21.493 6.46115C21.493 7.63088 21.4651 8.79128 21.3368 9.95627C21.0926 12.1735 20.5756 14.3766 19.454 16.3215C18.3436 18.1409 16.5431 19.5394 15.0956 20.4621C14.3748 20.9215 13.6922 21.2908 13.2028 21.5383C12.7145 21.7853 12.4187 21.911 12.4696 21.884C12.1742 22.0407 11.8449 22.0237 11.5467 21.8928C11.4301 21.8416 11.1648 21.7221 10.7997 21.5383C10.313 21.2934 9.64326 20.9326 8.90807 20.4641C7.46009 19.5413 5.65861 18.1418 4.54772 16.3215C3.37005 14.3916 2.87757 11.8874 2.66491 9.95627C2.53536 8.77985 2.38902 7.50268 2.52526 6.31662C2.5868 5.98692 2.81075 5.70568 3.12682 5.57541L11.6321 2.07541C11.8713 1.97694 12.1388 1.9754 12.3817 2.07541ZM4.50378 7.17111C4.50835 7.74993 4.53612 8.6744 4.65319 9.73752C4.85691 11.5872 5.31114 13.7332 6.25475 15.2795C7.12941 16.7128 8.62803 17.9129 9.98327 18.7766C10.8186 19.3089 11.5663 19.689 11.9999 19.8967C12.4437 19.6851 13.1653 19.3206 14.0204 18.7756C15.3752 17.912 16.8727 16.7121 17.7469 15.2795C18.6905 13.7332 19.1448 11.5872 19.3485 9.73752C19.4656 8.67442 19.4924 7.74993 19.4969 7.17111L12.0008 4.08127L4.50378 7.17111Z" fill="#101010"/>
</svg>
