<svg width="24" height="24" viewBox="0 0 24 24" fill="none" xmlns="http://www.w3.org/2000/svg">
<path fill-rule="evenodd" clip-rule="evenodd" d="M13.7189 11C15.02 11 15.9749 12.2231 15.6593 13.4854L14.5911 17.7574C14.4333 18.3886 14.9107 19 15.5612 19H17.5001V21H2.7814C1.48026 21 0.525395 19.7769 0.840966 18.5146L2.34097 12.5146C2.56367 11.6245 3.36378 11 4.2814 11H13.7189ZM4.47659 13C4.36187 13 4.26188 13.0781 4.23405 13.1894L2.85905 18.6894C2.81961 18.8472 2.93895 19 3.10159 19H12.0246C12.1394 19 12.2394 18.9219 12.2672 18.8106L13.6413 13.3106C13.6807 13.1528 13.5614 13 13.3988 13H4.47659Z" fill="#101010"/>
<path d="M19.7306 3C20.9524 3.00032 21.9955 3.88368 22.1964 5.08887L23.6964 14.0889C23.9503 15.6124 22.7751 16.9996 21.2306 17H17.5001V15H21.2306C21.5392 14.9996 21.7744 14.7224 21.7238 14.418L20.2238 5.41797C20.1836 5.17709 19.9748 5.00032 19.7306 5H4.79409C4.48349 5.00028 4.2449 5.28192 4.29897 5.59277C4.4174 6.27033 4.54806 7.0311 4.64956 7.64941C4.70019 7.95787 4.74394 8.23535 4.77554 8.45117C4.80086 8.62419 4.83413 8.85636 4.83413 9H2.83413C2.83413 9.03836 2.83235 8.98263 2.79702 8.74121C2.76793 8.54244 2.72589 8.27798 2.67593 7.97363C2.57612 7.36563 2.44635 6.61306 2.32827 5.9375C2.06097 4.40767 3.23622 3.00028 4.79409 3H19.7306Z" fill="#101010"/>
</svg>
