<svg width="32" height="32" viewBox="0 0 32 32" fill="none" xmlns="http://www.w3.org/2000/svg">
<path d="M26.652 1.66266e-07H5.348C4.64575 -0.000174958 3.95035 0.137991 3.30151 0.406608C2.65267 0.675225 2.0631 1.06903 1.56648 1.56554C1.06985 2.06204 0.675895 2.65151 0.407117 3.30029C0.138338 3.94906 -2.18359e-08 4.64443 0 5.34667V26.6507C-4.40634e-08 28.0692 0.563406 29.4296 1.56631 30.4327C2.56922 31.4359 3.9295 31.9996 5.348 32H26.652C28.0705 31.9996 29.4308 31.4359 30.4337 30.4327C31.4366 29.4296 32 28.0692 32 26.6507V5.34667C32 4.64443 31.8617 3.94906 31.5929 3.30029C31.3241 2.65151 30.9302 2.06204 30.4335 1.56554C29.9369 1.06903 29.3473 0.675225 28.6985 0.406608C28.0496 0.137991 27.3542 -0.000174958 26.652 1.66266e-07ZM26.1813 24.4947C26.1813 24.9421 26.0037 25.3713 25.6874 25.6878C25.3711 26.0043 24.9421 26.1823 24.4947 26.1827H7.508C7.28639 26.1827 7.06695 26.139 6.86223 26.0542C6.65751 25.9693 6.47152 25.8449 6.31488 25.6882C6.15824 25.5314 6.03403 25.3453 5.94934 25.1405C5.86466 24.9357 5.82116 24.7163 5.82133 24.4947V7.50667C5.82116 7.28507 5.86466 7.06559 5.94934 6.8608C6.03403 6.65601 6.15824 6.46992 6.31488 6.31316C6.47152 6.1564 6.65751 6.03203 6.86223 5.94718C7.06695 5.86234 7.28639 5.81867 7.508 5.81867H24.4947C24.9421 5.81902 25.3711 5.99702 25.6874 6.31354C26.0037 6.63007 26.1813 7.05922 26.1813 7.50667V24.4947Z" fill="black"/>
<path d="M12.6 20.3413C12.4725 20.3413 12.3463 20.3162 12.2286 20.2673C12.1109 20.2184 12.004 20.1467 11.9141 20.0564C11.8242 19.9661 11.7529 19.8589 11.7045 19.741C11.6561 19.6231 11.6315 19.4968 11.632 19.3693V12.588C11.6313 12.4604 11.6558 12.334 11.7041 12.2159C11.7525 12.0979 11.8237 11.9905 11.9136 11.9001C12.0036 11.8096 12.1105 11.7378 12.2283 11.6889C12.3461 11.6399 12.4724 11.6147 12.6 11.6147H19.4C19.5275 11.6148 19.6538 11.6402 19.7715 11.6892C19.8892 11.7383 19.9961 11.81 20.086 11.9005C20.1759 11.9909 20.2471 12.0982 20.2955 12.2161C20.3439 12.3341 20.3685 12.4605 20.368 12.588V19.3693C20.3684 19.4967 20.3436 19.623 20.2951 19.7408C20.2466 19.8586 20.1754 19.9657 20.0855 20.056C19.9956 20.1463 19.8888 20.218 19.7712 20.2669C19.6535 20.3159 19.5274 20.3412 19.4 20.3413H12.6Z" fill="black"/>
</svg>
