<svg width="24" height="24" viewBox="0 0 24 24" fill="none" xmlns="http://www.w3.org/2000/svg">
<path fill-rule="evenodd" clip-rule="evenodd" d="M10.0005 13.0005C10.5525 13.0008 11.0005 13.4484 11.0005 14.0005L10.9995 20.0005C10.9992 20.5525 10.5516 21.0005 9.99951 21.0005H3.99951C3.73447 21.0004 3.4799 20.8949 3.29248 20.7075C3.10506 20.5201 2.99964 20.2655 2.99951 20.0005L3.00049 14.0005C3.00049 13.4482 3.4482 13.0005 4.00049 13.0005H10.0005ZM4.99951 19.0005H9.00049V15.0005H5.00049L4.99951 19.0005Z" fill="#101010"/>
<path fill-rule="evenodd" clip-rule="evenodd" d="M10.1021 3.00537C10.6062 3.0567 10.9995 3.48281 10.9995 4.00049V10.0005C10.9992 10.5525 10.5516 11.0005 9.99951 11.0005H3.99951C3.73447 11.0004 3.4799 10.8949 3.29248 10.7075C3.10506 10.5201 2.99964 10.2655 2.99951 10.0005V3.99951C2.99978 3.44761 3.44761 3.00075 3.99951 3.00049H9.99951L10.1021 3.00537ZM4.99951 9.00049H8.99951V5.00049H4.99951V9.00049Z" fill="#101010"/>
<path fill-rule="evenodd" clip-rule="evenodd" d="M20 3.00049C20.5521 3.00075 21 3.44837 21 4.00049V10.0005C20.9997 10.5524 20.5519 11.0002 20 11.0005H13.999C13.7342 11.0004 13.4803 10.8946 13.293 10.7075C13.1055 10.5201 13.0001 10.2655 13 10.0005V3.99951C13.0003 3.44745 13.4479 3.00049 14 3.00049H20ZM15 9.00049H19V5.00049H15V9.00049Z" fill="#101010"/>
<path fill-rule="evenodd" clip-rule="evenodd" d="M20.001 13.0005C20.553 13.0008 21.001 13.4484 21.001 14.0005L21 20.0005C20.9997 20.5525 20.5521 21.0005 20 21.0005H14C13.735 21.0004 13.4804 20.8949 13.293 20.7075C13.1055 20.5201 13.0001 20.2655 13 20.0005L13.001 14.0005C13.001 13.4482 13.4487 13.0005 14.001 13.0005H20.001ZM15 19.0005H19.001V15.0005H15.001L15 19.0005Z" fill="#101010"/>
</svg>
