<svg width="24" height="24" viewBox="0 0 24 24" fill="none" xmlns="http://www.w3.org/2000/svg">
<path d="M11.4521 16.5213C11.455 16.2503 11.3773 15.9846 11.2289 15.7578C11.0804 15.5311 10.868 15.3536 10.6184 15.2479C10.3689 15.1421 10.0936 15.1129 9.8274 15.164C9.56125 15.2151 9.31628 15.3441 9.12361 15.5347C8.93095 15.7253 8.79927 15.9689 8.74532 16.2345C8.69137 16.5 8.71757 16.7757 8.8206 17.0263C8.92362 17.277 9.09883 17.4914 9.32395 17.6423C9.54908 17.7932 9.81397 17.8737 10.085 17.8737C10.264 17.8762 10.4416 17.843 10.6077 17.7761C10.7737 17.7092 10.9247 17.6099 11.052 17.4841C11.1792 17.3582 11.2802 17.2082 11.3489 17.0429C11.4175 16.8776 11.4526 16.7003 11.4521 16.5213ZM12.5688 14.3087V18.7344H11.4312V18.3334C11.0259 18.6675 10.5162 18.8488 9.99099 18.8457C8.64438 18.8457 7.59043 17.8114 7.59043 16.52C7.59043 15.2286 8.64438 14.1947 9.99099 14.1947C10.5162 14.1916 11.0259 14.3729 11.4312 14.707V14.3061L12.5688 14.3087ZM16.3508 17.7303H15.4968C15.2362 17.7303 15.0692 17.618 15.0692 17.3824V15.3128H16.3526V14.3087H15.0674V13.0468H13.9195V14.307H13.0531V15.311H13.9195V17.667C13.9195 18.2613 14.3476 18.7326 15.1195 18.7326H16.3508V17.7303ZM18.9442 18.8471C20.2592 18.8471 21 18.2323 21 17.3824C21 16.7775 20.5617 16.3267 19.6431 16.132L18.6729 15.9373C18.1094 15.8353 17.9317 15.7329 17.9317 15.528C17.9317 15.2607 18.2034 15.0976 18.7041 15.0976C19.2467 15.0976 19.6431 15.2411 19.7581 15.7329H20.8958C20.833 14.8108 20.1545 14.196 18.7772 14.196C17.5874 14.196 16.7526 14.6776 16.7526 15.6099C16.7526 16.2549 17.2118 16.6755 18.2034 16.8799L19.2886 17.1258C19.7166 17.2078 19.8311 17.3205 19.8311 17.4951C19.8311 17.7713 19.5077 17.9454 18.9848 17.9454C18.3277 17.9454 17.9517 17.802 17.8056 17.3102H16.6586C16.8256 18.2323 17.525 18.8471 18.9442 18.8471ZM3 12.7412H7.2893V13.7657H4.15819V15.2295H7.20555V16.2233H4.15819V17.7085H7.2893V18.733H3V12.7412Z" fill="#101010"/>
<path d="M20.8958 7.54983V6.74534H20.5906C20.1006 6.74534 19.7443 6.96807 19.5264 7.31909V6.77964H18.6542V11.1451H19.5353V8.66303C19.5353 7.98683 19.9536 7.54939 20.5296 7.54939L20.8958 7.54983ZM14.564 8.56013C14.7213 7.89194 15.2705 7.44649 15.9249 7.44649C16.5793 7.44649 17.1276 7.89194 17.2764 8.56013H14.564ZM15.9423 6.69367C15.6429 6.69119 15.3459 6.74808 15.0686 6.86104C14.7913 6.974 14.5391 7.1408 14.3266 7.35179C14.1141 7.56279 13.9455 7.81379 13.8306 8.09031C13.7157 8.36683 13.6567 8.66338 13.6571 8.96282C13.6571 10.264 14.6861 11.24 16.0207 11.24C16.8319 11.24 17.4943 10.889 17.9393 10.3068L17.3027 9.84438C16.9713 10.2809 16.5352 10.4867 16.0207 10.4867C15.6674 10.4892 15.3248 10.3656 15.0546 10.138C14.7844 9.91037 14.6043 9.59381 14.5467 9.24524H18.166V8.96282C18.166 7.6612 17.2243 6.69367 15.9423 6.69367ZM10.9086 10.4867C10.6096 10.4844 10.3179 10.3937 10.0704 10.2259C9.82283 10.0581 9.63051 9.82073 9.51765 9.54379C9.40479 9.26685 9.37645 8.96269 9.43619 8.66967C9.49593 8.37664 9.64108 8.10786 9.85335 7.8972C10.0656 7.68654 10.3355 7.54344 10.629 7.48593C10.9224 7.42843 11.2264 7.45909 11.5025 7.57405C11.7785 7.68902 12.0144 7.88314 12.1803 8.13195C12.3462 8.38076 12.4348 8.67312 12.4348 8.97218C12.4341 9.17186 12.3941 9.36947 12.3171 9.55369C12.24 9.7379 12.1274 9.90513 11.9856 10.0458C11.8439 10.1865 11.6758 10.2978 11.491 10.3735C11.3062 10.4491 11.1083 10.4876 10.9086 10.4867ZM8.5103 11.1456H9.3825V10.5968C9.59136 10.8041 9.83902 10.9684 10.1113 11.08C10.3837 11.1917 10.6753 11.2486 10.9697 11.2476C12.278 11.2476 13.307 10.2288 13.307 8.97039C13.307 7.70352 12.278 6.68431 10.9697 6.68431C10.677 6.6837 10.3872 6.74097 10.1168 6.85281C9.84638 6.96466 9.60077 7.12888 9.39408 7.33601V5.15328H8.51163L8.5103 11.1456ZM5.41437 10.4435C6.26074 10.4435 6.91423 9.80162 6.91423 8.85101V5.15372H7.83008V11.1456H6.92447V10.5892C6.51465 11.0088 5.94758 11.2485 5.31103 11.2485C4.00272 11.2485 3 10.3152 3 8.90268V5.15283H3.91497V8.85012C3.91497 9.8181 4.55999 10.4426 5.41482 10.4426" fill="#101010"/>
</svg>
