<svg width="24" height="24" viewBox="0 0 24 24" fill="none" xmlns="http://www.w3.org/2000/svg">
<path d="M20.0001 3C20.5274 3 20.9642 3.40938 20.9982 3.93555L21.9982 19.4355C22.016 19.7113 21.9185 19.982 21.7296 20.1836C21.5406 20.3852 21.2765 20.5 21.0001 20.5H3.00012C2.72372 20.5 2.45967 20.3852 2.27063 20.1836C2.08169 19.982 1.98428 19.7113 2.00207 19.4355L3.00207 3.93555L3.01281 3.83887C3.09048 3.36006 3.50561 3 4.00012 3H20.0001ZM4.06652 18.5H19.9337L19.0626 5H4.93762L4.06652 18.5ZM9.00012 7V9C9.00012 9.55228 9.44783 10 10.0001 10H14.0001C14.5524 10 15.0001 9.55228 15.0001 9V7H17.0001V9C17.0001 10.6569 15.657 12 14.0001 12H10.0001C8.34326 12 7.00012 10.6569 7.00012 9V7H9.00012Z" fill="#101010"/>
</svg>
