<svg width="24" height="24" viewBox="0 0 24 24" fill="none" xmlns="http://www.w3.org/2000/svg">
<path d="M17.0742 3.5C18.0208 3.50019 18.8861 4.03519 19.3096 4.88184L21.5586 9.37891C21.9486 9.27544 22.3282 9.16565 22.6953 9.04785L23.3066 10.9521C22.8852 11.0874 22.449 11.2126 22.001 11.3301V20C22.001 20.5522 21.5532 20.9999 21.001 21H17.001C16.4487 21 16.001 20.5523 16.001 20V18H8.00098V20C8.00098 20.5522 7.55316 20.9999 7.00098 21H3.00098C2.44869 21 2.00098 20.5523 2.00098 20V11.3301C1.55286 11.2126 1.11681 11.0874 0.695312 10.9521L1.30664 9.04785C1.67351 9.16557 2.05269 9.2755 2.44238 9.37891L4.69238 4.88184C5.11588 4.03517 5.98105 3.50011 6.92773 3.5H17.0742ZM20.001 11.7812C15.0164 12.7379 8.98557 12.7379 4.00098 11.7812V19H6.00098V17C6.00098 16.4477 6.44869 16 7.00098 16H17.001C17.5532 16.0001 18.001 16.4478 18.001 17V19H20.001V11.7812ZM6.92773 5.5C6.7385 5.50011 6.56514 5.60711 6.48047 5.77637L4.45215 9.83203C9.14351 10.7213 14.8574 10.7212 19.5488 9.83203L17.5215 5.77637C17.4369 5.60713 17.2634 5.50019 17.0742 5.5H6.92773Z" fill="#101010"/>
</svg>
