<svg width="24" height="24" viewBox="0 0 24 24" fill="none" xmlns="http://www.w3.org/2000/svg">
<path d="M22 7.5H17.0127L8.31152 19.584C8.1236 19.845 7.82162 20 7.5 20H2V18H4.06445L4.3252 14.0928C4.45997 12.0712 6.13898 10.5 8.16504 10.5C9.41933 10.5001 10.5543 11.1055 11.2617 12.0635L15.3896 6.33105C15.7655 5.80932 16.3696 5.5 17.0127 5.5H22V7.5ZM8.16504 12.5C7.19191 12.5 6.38504 13.2546 6.32031 14.2256L6.06934 18H6.98828L9.95215 13.8828C9.7415 13.0733 9.01033 12.5001 8.16504 12.5ZM8 4C9.51878 4 10.75 5.23122 10.75 6.75C10.75 8.26878 9.51878 9.5 8 9.5C6.48122 9.5 5.25 8.26878 5.25 6.75C5.25 5.23122 6.48122 4 8 4ZM8 6C7.58579 6 7.25 6.33579 7.25 6.75C7.25 7.16421 7.58579 7.5 8 7.5C8.41421 7.5 8.75 7.16421 8.75 6.75C8.75 6.33579 8.41421 6 8 6Z" fill="#101010"/>
</svg>
