<svg width="24" height="24" viewBox="0 0 24 24" fill="none" xmlns="http://www.w3.org/2000/svg">
<path d="M18 4C18.5523 4 19 4.44772 19 5V9.30664L22.3516 10.5635C22.7417 10.7099 23 11.0832 23 11.5V17.5C23 18.0523 22.5523 18.5 22 18.5H19.958C19.7199 19.9188 18.4865 21 17 21C15.5135 21 14.2801 19.9188 14.042 18.5H6.95801C6.71993 19.9188 5.48647 21 4 21C2.34315 21 1 19.6569 1 18V5C1 4.44772 1.44772 4 2 4H18ZM3 11H12.5V13H3V18C3 18.5523 3.44772 19 4 19C4.55228 19 5 18.5523 5 18V17.5C5 16.9477 5.44772 16.5 6 16.5H15C15.5523 16.5 16 16.9477 16 17.5V18C16 18.5523 16.4477 19 17 19C17.5523 19 18 18.5523 18 18V17.5C18 16.9477 18.4477 16.5 19 16.5H21V12.1924L17.6484 10.9365C17.2583 10.7901 17 10.4167 17 10V6H3V11Z" fill="#101010"/>
</svg>
