<svg width="24" height="24" viewBox="0 0 24 24" fill="none" xmlns="http://www.w3.org/2000/svg">
<path d="M14.8369 3C15.121 3 15.2635 2.99984 15.3945 3.03613C15.5105 3.06826 15.6196 3.12145 15.7168 3.19238C15.8266 3.27254 15.9154 3.38378 16.0918 3.60645L19.1543 7.47266C19.2824 7.63439 19.346 7.71575 19.3916 7.80566C19.432 7.88541 19.4616 7.97003 19.4795 8.05762C19.4996 8.15638 19.5 8.25951 19.5 8.46582V19.4004C19.5 19.9602 19.4996 20.2402 19.3906 20.4541C19.2948 20.6421 19.1421 20.7948 18.9541 20.8906C18.7402 20.9996 18.4602 21 17.9004 21H6.09961C5.53982 21 5.25976 20.9996 5.0459 20.8906C4.85793 20.7948 4.70522 20.6421 4.60938 20.4541C4.50041 20.2402 4.5 19.9602 4.5 19.4004V4.59961C4.5 4.03982 4.50041 3.75976 4.60938 3.5459C4.70522 3.35793 4.85793 3.20522 5.0459 3.10938C5.25976 3.00041 5.53982 3 6.09961 3H14.8369ZM8 15H16V13H8V15ZM8 10H14V8H8V10Z" fill="#101010"/>
</svg>
