<svg width="24" height="24" viewBox="0 0 24 24" fill="none" xmlns="http://www.w3.org/2000/svg">
<path fill-rule="evenodd" clip-rule="evenodd" d="M10 3.5C10.3038 3.5 10.5915 3.63778 10.7812 3.875L12.4814 6H21L21.1025 6.00488C21.1691 6.01166 21.2338 6.02475 21.2959 6.04395C21.3008 6.04547 21.3057 6.04723 21.3105 6.04883C21.3343 6.05659 21.3579 6.06476 21.3809 6.07422C21.3935 6.07944 21.4056 6.08608 21.418 6.0918C21.4355 6.09987 21.4528 6.10815 21.4697 6.11719C21.4771 6.1211 21.484 6.12579 21.4912 6.12988C21.5105 6.14078 21.5294 6.15195 21.5479 6.16406C21.5581 6.17076 21.5682 6.17751 21.5781 6.18457C21.5954 6.19685 21.6125 6.20933 21.6289 6.22266C21.6343 6.22701 21.6392 6.23186 21.6445 6.23633C21.6623 6.25138 21.6796 6.26696 21.6963 6.2832C21.7029 6.28962 21.7094 6.29613 21.7158 6.30273C21.7525 6.34037 21.786 6.38082 21.8164 6.42383C21.8234 6.43378 21.8302 6.44388 21.8369 6.4541C21.8631 6.49417 21.8859 6.53631 21.9062 6.58008C21.9268 6.62445 21.945 6.67016 21.959 6.71777C21.9722 6.76275 21.9815 6.80908 21.9883 6.85645C21.995 6.90339 22 6.95118 22 7V18.5C22 19.0523 21.5523 19.5 21 19.5H3C2.44772 19.5 2 19.0523 2 18.5V4.5C2 3.94772 2.44772 3.5 3 3.5H10ZM4 17.5H20V8H12C11.6962 8 11.4085 7.86222 11.2188 7.625L9.51855 5.5H4V17.5Z" fill="#101010"/>
</svg>
