<svg width="24" height="24" viewBox="0 0 24 24" fill="none" xmlns="http://www.w3.org/2000/svg">
<path d="M12 1C14.3814 1 16.6683 1.92987 18.3574 3.58984C20.0471 5.25041 21 7.50627 21 9.8623C20.9999 13.3214 18.765 16.4752 16.7314 18.6562C15.6929 19.7702 14.6573 20.6821 13.8828 21.3154C13.4949 21.6327 13.1707 21.8819 12.9414 22.0527C12.8267 22.1382 12.7353 22.2046 12.6719 22.25C12.6403 22.2726 12.6151 22.2895 12.5977 22.3018C12.5889 22.3079 12.5821 22.3129 12.5771 22.3164C12.5748 22.318 12.5728 22.3193 12.5713 22.3203L12.5693 22.3223H12.5684L12 21.5L12.5684 22.3232C12.2264 22.5593 11.7736 22.5593 11.4316 22.3232V22.3223H11.4307L11.4287 22.3203C11.4272 22.3193 11.4252 22.318 11.4229 22.3164C11.4179 22.3129 11.4111 22.3079 11.4023 22.3018C11.3849 22.2895 11.3597 22.2726 11.3281 22.25C11.2647 22.2046 11.1733 22.1382 11.0586 22.0527C10.8293 21.8819 10.5051 21.6327 10.1172 21.3154C9.34273 20.6821 8.30714 19.7702 7.26855 18.6562C5.23505 16.4752 3.0001 13.3214 3 9.8623C3 7.50627 3.95288 5.25041 5.64258 3.58984C7.33169 1.92987 9.61862 1 12 1ZM12 3C10.138 3 8.35541 3.72683 7.04395 5.01562C5.73306 6.30391 5 8.04804 5 9.8623C5.0001 12.5179 6.76509 15.1829 8.73145 17.292C9.69282 18.3231 10.6573 19.1743 11.3828 19.7676C11.6166 19.9587 11.8258 20.1211 12 20.2549C12.1742 20.1211 12.3834 19.9587 12.6172 19.7676C13.3427 19.1743 14.3072 18.3231 15.2686 17.292C17.2349 15.1829 18.9999 12.5179 19 9.8623C19 8.04804 18.2669 6.30391 16.9561 5.01562C15.6446 3.72683 13.862 3 12 3ZM12 7.5C13.1046 7.5 14 8.39543 14 9.5C14 10.6046 13.1046 11.5 12 11.5C10.8955 11.5 10 10.6045 10 9.5C10 8.39545 10.8955 7.50003 12 7.5Z" fill="#101010"/>
</svg>
