<svg width="24" height="24" viewBox="0 0 24 24" fill="none" xmlns="http://www.w3.org/2000/svg">
<path d="M18.5 12C19.5608 12 20.578 12.4219 21.3281 13.1719C22.0782 13.9219 22.5 15.0106 22.5 16.0713C22.5 18.0663 19.7824 20.9212 18.8271 21.8633C18.6426 22.0453 18.3574 22.0453 18.1729 21.8633C17.2177 20.9213 14.5 18.0663 14.5 16.0713C14.5 15.0106 14.9217 13.9219 15.6719 13.1719C16.422 12.4218 17.4391 12 18.5 12ZM22.5 3.5C22.8465 3.50004 23.1684 3.67982 23.3506 3.97461C23.5326 4.26937 23.5495 4.63738 23.3945 4.94727L21.5 8.73633V10.5H19.5V9.5H10.5V18.5H13V20.5H3.5C2.94772 20.5 2.5 20.0523 2.5 19.5V8.73633L0.605469 4.94727L2.39453 4.05273L4.11816 7.5H8.88184L10.6055 4.05273L10.6768 3.93164C10.8617 3.6637 11.1686 3.5 11.5 3.5H22.5ZM4.5 18.5H8.5V9.5H4.5V18.5ZM18.5 14.5C17.6716 14.5 17 15.1716 17 16C17 16.8284 17.6716 17.5 18.5 17.5C19.3284 17.5 20 16.8284 20 16C20 15.1716 19.3284 14.5 18.5 14.5ZM11.1182 7.5H19.8818L20.8818 5.5H12.1182L11.1182 7.5Z" fill="#101010"/>
</svg>
