<svg width="24" height="24" viewBox="0 0 24 24" fill="none" xmlns="http://www.w3.org/2000/svg">
<path d="M13.3672 1.5C14.7302 1.50002 15.8134 2.61563 15.8135 3.96484C15.8135 4.1385 15.926 4.36312 16.1885 4.51367C16.2342 4.53992 16.28 4.56668 16.3252 4.59375C16.5853 4.74942 16.8227 4.73046 16.958 4.65137C18.1357 3.96269 19.6354 4.3767 20.3076 5.55566L21.6748 7.95312C22.3429 9.12532 21.9508 10.63 20.7803 11.3145C20.6414 11.3959 20.5001 11.6039 20.5029 11.9199C20.5032 11.9466 20.5039 11.9733 20.5039 12C20.5039 12.0114 20.503 12.023 20.5029 12.0342C20.5029 12.0495 20.5031 12.0648 20.5029 12.0801C20.5001 12.3961 20.6414 12.6041 20.7803 12.6855C21.9508 13.37 22.3429 14.8747 21.6748 16.0469L20.3076 18.4443C19.6354 19.6233 18.1357 20.0373 16.958 19.3486C16.8227 19.2695 16.5853 19.2506 16.3252 19.4062L16.1885 19.4863C15.926 19.6369 15.8135 19.8615 15.8135 20.0352C15.8134 21.3844 14.7302 22.5 13.3672 22.5H10.6328C9.26975 22.5 8.1866 21.3844 8.18652 20.0352C8.18652 19.8833 8.10044 19.6921 7.90332 19.5459L7.81152 19.4863C7.76577 19.4601 7.72006 19.4333 7.6748 19.4062C7.41468 19.2506 7.17728 19.2696 7.04199 19.3486C5.86429 20.0373 4.3646 19.6233 3.69238 18.4443L2.3252 16.0469C1.6571 14.8747 2.04922 13.37 3.21973 12.6855C3.35863 12.6041 3.49993 12.3961 3.49707 12.0801C3.49683 12.0534 3.49609 12.0267 3.49609 12C3.49609 11.9733 3.49683 11.9466 3.49707 11.9199C3.49993 11.6039 3.35863 11.3959 3.21973 11.3145C2.04922 10.63 1.6571 9.12533 2.3252 7.95312L3.69238 5.55566C4.3646 4.37671 5.86429 3.96267 7.04199 4.65137C7.17728 4.73045 7.41469 4.74942 7.6748 4.59375C7.72004 4.56668 7.76575 4.53992 7.81152 4.51367C8.07396 4.36312 8.18652 4.13849 8.18652 3.96484C8.1866 2.61562 9.26975 1.5 10.6328 1.5L13.3672 1.5ZM10.6328 3.5C10.3983 3.5 10.1866 3.69602 10.1865 3.96484C10.1865 4.98471 9.56953 5.81149 8.80664 6.24902C8.77167 6.26907 8.73672 6.28986 8.70215 6.31055C7.94649 6.76277 6.91875 6.89634 6.03223 6.37793C5.82608 6.25741 5.55669 6.32348 5.42969 6.5459L4.0625 8.94336C3.93128 9.17364 4.01452 9.46248 4.22852 9.58789C5.10999 10.1034 5.50486 11.0602 5.49707 11.9375C5.49688 11.9581 5.49609 11.9793 5.49609 12C5.49609 12.0207 5.49688 12.0418 5.49707 12.0625C5.50486 12.9398 5.10999 13.8966 4.22852 14.4121C4.01452 14.5375 3.93129 14.8264 4.0625 15.0566L5.42969 17.4541C5.55669 17.6765 5.82607 17.7426 6.03223 17.6221C6.91874 17.1037 7.94649 17.2372 8.70215 17.6895C8.73669 17.7101 8.77165 17.7309 8.80664 17.751C9.56953 18.1885 10.1865 19.0153 10.1865 20.0352C10.1866 20.304 10.3983 20.5 10.6328 20.5H13.3672C13.6016 20.5 13.8134 20.304 13.8135 20.0352C13.8135 19.0153 14.4305 18.1885 15.1934 17.751C15.2283 17.7309 15.2633 17.7101 15.2979 17.6895C16.0535 17.2372 17.0813 17.1037 17.9678 17.6221C18.1739 17.7426 18.4433 17.6765 18.5703 17.4541L19.9375 15.0566C20.0687 14.8264 19.9855 14.5375 19.7715 14.4121C18.89 13.8966 18.4951 12.9398 18.5029 12.0625V12.0615C18.503 12.0498 18.5039 12.038 18.5039 12.0264C18.5039 12.0175 18.5039 12.0087 18.5039 12C18.5039 11.9794 18.5031 11.9589 18.5029 11.9385V11.9375C18.4951 11.0602 18.89 10.1034 19.7715 9.58789C19.9855 9.46248 20.0687 9.17363 19.9375 8.94336L18.5703 6.5459C18.4433 6.32348 18.1739 6.25743 17.9678 6.37793C17.0813 6.89634 16.0535 6.76276 15.2979 6.31055C15.2633 6.28986 15.2283 6.26908 15.1934 6.24902C14.4305 5.81149 13.8135 4.98472 13.8135 3.96484C13.8134 3.69603 13.6017 3.50002 13.3672 3.5L10.6328 3.5ZM12 7.2002C14.6363 7.20021 16.752 9.36113 16.752 12C16.752 14.6389 14.6363 16.7998 12 16.7998C9.36368 16.7998 7.24805 14.6389 7.24805 12C7.24805 9.36112 9.36368 7.2002 12 7.2002ZM12 9.2002C10.4923 9.2002 9.24805 10.4415 9.24805 12C9.24805 13.5585 10.4923 14.7998 12 14.7998C13.5077 14.7998 14.752 13.5585 14.752 12C14.752 10.4415 13.5077 9.20021 12 9.2002Z" fill="black"/>
</svg>
