<svg width="24" height="24" viewBox="0 0 24 24" fill="none" xmlns="http://www.w3.org/2000/svg">
<path d="M16.5002 10C17.9445 10 19.3387 10.5479 20.3733 11.5361C21.4093 12.5259 22.0002 13.8785 22.0002 15.2988C22.0002 17.3685 20.6423 19.2885 19.4953 20.5703C18.8979 21.238 18.3034 21.7917 17.8596 22.1777C17.6371 22.3713 17.4501 22.524 17.3176 22.6299C17.2513 22.6828 17.1987 22.7252 17.1614 22.7539C17.1429 22.7681 17.1279 22.7791 17.1174 22.7871C17.1122 22.791 17.1079 22.7945 17.1047 22.7969C17.1033 22.798 17.1018 22.7991 17.1008 22.7998L17.0989 22.8008L16.5002 22L17.0979 22.8018C16.7433 23.066 16.2571 23.066 15.9026 22.8018L16.5002 22L15.9016 22.8008L15.8996 22.7998C15.8986 22.7991 15.8972 22.798 15.8957 22.7969C15.8926 22.7945 15.8882 22.791 15.883 22.7871C15.8725 22.7791 15.8575 22.7681 15.8391 22.7539C15.8018 22.7251 15.7491 22.6828 15.6828 22.6299C15.5503 22.524 15.3633 22.3713 15.1409 22.1777C14.6971 21.7916 14.1025 21.238 13.5051 20.5703C12.3582 19.2885 11.0002 17.3684 11.0002 15.2988C11.0002 13.8785 11.5912 12.5259 12.6272 11.5361C13.6617 10.5478 15.056 10.0001 16.5002 10ZM13.5002 2C15.1571 2 16.5002 3.34315 16.5002 5V6H22.0002C22.294 6 22.5729 6.12944 22.7629 6.35352C22.9529 6.57773 23.0348 6.87421 22.9866 7.16406L22.4866 10.1641L20.5139 9.83594L20.8196 8H3.21116L5.3264 19H10.0002V21H5.3264C4.36767 20.9999 3.54372 20.3194 3.36253 19.3779L1.0178 7.18848C0.961658 6.89575 1.03993 6.59312 1.22972 6.36328C1.41963 6.13346 1.70209 6.00008 2.00023 6H7.50023V5C7.50023 3.34323 8.84349 2.00014 10.5002 2H13.5002ZM16.5002 12C15.5577 12.0001 14.6622 12.3584 14.009 12.9824C13.3575 13.6049 13.0002 14.4392 13.0002 15.2988C13.0002 16.5727 13.8924 18.0036 14.9953 19.2363C15.5228 19.8258 16.0535 20.3211 16.4534 20.6689C16.4689 20.6825 16.4851 20.695 16.5002 20.708C16.5153 20.695 16.5316 20.6825 16.5471 20.6689C16.947 20.3211 17.4777 19.8258 18.0051 19.2363C19.1081 18.0035 20.0002 16.5727 20.0002 15.2988C20.0002 14.4391 19.643 13.605 18.9914 12.9824C18.3382 12.3585 17.4428 12 16.5002 12ZM10.5002 4C9.94806 4.00014 9.50023 4.4478 9.50023 5V6H14.5002V5C14.5002 4.44772 14.0525 4 13.5002 4H10.5002Z" fill="#101010"/>
</svg>
